<?xml version="1.0" encoding="UTF-8"?>
<!-- Generator: https://ezgif.com/png-to-svg -->
<svg version="1.1" xmlns="http://www.w3.org/2000/svg" width="417" height="414">
<path d="M0 0 C1.27 -0 1.27 -0 2.57 -0 C15.48 0.01 28.03 0.46 40.69 3.25 C41.46 3.42 42.23 3.58 43.03 3.75 C70.6 9.9 96.91 21.5 119.69 38.25 C120.27 38.68 120.85 39.1 121.45 39.54 C133.5 48.5 145.27 58.5 154.69 70.25 C155.5 71.24 156.32 72.23 157.16 73.25 C168.22 86.84 177.34 101.35 184.69 117.25 C185.06 118.04 185.42 118.83 185.8 119.65 C186.94 122.12 188.07 124.59 189.19 127.06 C189.54 127.83 189.89 128.61 190.25 129.4 C192.69 134.89 192.69 134.89 192.69 138.25 C193.57 137.94 193.57 137.94 194.48 137.62 C197.15 136.69 199.83 135.75 202.5 134.81 C203.43 134.49 204.36 134.16 205.31 133.83 C206.21 133.51 207.1 133.2 208.02 132.88 C208.84 132.59 209.66 132.3 210.51 132.01 C212.23 131.41 213.96 130.83 215.69 130.25 C215.22 137.55 212.81 143.54 210 150.25 C209.08 152.5 208.15 154.75 207.23 157.01 C206.79 158.09 206.35 159.17 205.89 160.29 C204.43 163.88 203.08 167.49 201.75 171.12 C197.38 182.95 192.48 194.59 187.69 206.25 C184.14 206.25 183.82 205.78 181.36 203.43 C180.72 202.83 180.09 202.23 179.43 201.62 C178.77 200.98 178.12 200.34 177.44 199.69 C176.79 199.08 176.15 198.47 175.49 197.84 C171.7 194.24 167.98 190.56 164.31 186.83 C162.6 185.16 160.82 183.61 159 182.06 C154.82 178.47 150.99 174.58 147.12 170.67 C143.69 167.21 140.15 163.95 136.45 160.78 C133.7 158.39 131.16 155.91 128.69 153.25 C128.69 152.59 128.69 151.93 128.69 151.25 C137.01 150.11 145.32 149 153.69 148.25 C151.53 138.89 147.22 130.65 142.69 122.25 C142.34 121.61 142 120.98 141.65 120.32 C120.78 82.28 85.08 57.25 44.07 44.94 C2.1 32.77 -42.59 40.13 -80.58 60.4 C-97.07 69.5 -112.31 81.73 -124.31 96.25 C-124.9 96.95 -125.49 97.66 -126.1 98.38 C-153.54 132.32 -166.67 176.2 -162.6 219.63 C-160.19 241.56 -153.91 261.92 -143.31 281.25 C-142.67 282.46 -142.02 283.68 -141.38 284.89 C-134.18 298.2 -124.75 309.38 -114.31 320.25 C-113.51 321.09 -113.51 321.09 -112.69 321.95 C-108.66 326.08 -104.45 329.7 -99.81 333.12 C-98.77 333.9 -98.77 333.9 -97.7 334.69 C-73.62 352.27 -46.79 362.26 -17.31 366.25 C-16.4 366.38 -15.48 366.51 -14.54 366.65 C-1.09 368.3 12.35 367.23 25.69 365.25 C26.97 365.07 28.26 364.88 29.58 364.7 C52.33 360.96 75.12 351.99 93.69 338.25 C94.22 337.86 94.74 337.47 95.29 337.07 C117.47 320.69 139.3 298.82 148.69 272.25 C148.09 272.1 147.5 271.96 146.88 271.81 C144.19 271.14 141.5 270.48 138.81 269.81 C137.88 269.58 136.94 269.35 135.97 269.12 C134.63 268.78 134.63 268.78 133.26 268.44 C132.02 268.14 132.02 268.14 130.75 267.82 C128.69 267.25 128.69 267.25 126.69 266.25 C126.69 265.59 126.69 264.93 126.69 264.25 C128.2 262.88 129.77 261.58 131.38 260.31 C132.38 259.51 133.38 258.71 134.42 257.88 C134.95 257.45 135.49 257.02 136.04 256.58 C138.8 254.35 141.49 252.05 144.19 249.75 C148.21 246.33 152.27 242.95 156.38 239.62 C159.85 236.8 163.2 233.9 166.5 230.88 C170.6 227.15 174.81 223.6 179.12 220.12 C179.73 219.63 180.33 219.13 180.95 218.62 C182.68 217.24 182.68 217.24 185.69 215.25 C186.68 215.58 187.67 215.91 188.69 216.25 C189.56 218.15 189.56 218.15 190.27 220.67 C190.54 221.62 190.81 222.56 191.09 223.54 C191.51 225.09 191.51 225.09 191.94 226.67 C192.24 227.74 192.54 228.82 192.86 229.92 C193.82 233.36 194.76 236.8 195.69 240.25 C195.99 241.35 196.28 242.45 196.59 243.58 C198.35 250.11 200.07 256.65 201.77 263.2 C202.64 266.57 203.53 269.93 204.41 273.3 C204.97 275.45 205.53 277.61 206.09 279.77 C206.35 280.76 206.61 281.76 206.88 282.79 C207.12 283.71 207.36 284.64 207.61 285.59 C207.92 286.8 207.92 286.8 208.24 288.03 C208.69 290.25 208.69 290.25 208.69 294.25 C203.34 292.53 198.09 290.66 192.86 288.64 C191.12 287.97 191.12 287.97 189.34 287.28 C188.47 286.94 187.59 286.6 186.69 286.25 C186.18 287.28 186.18 287.28 185.65 288.32 C179.14 301.3 172.71 313.84 163.69 325.25 C163.02 326.12 162.36 326.99 161.68 327.89 C156.4 334.69 150.59 340.99 144.69 347.25 C144.03 347.96 143.38 348.67 142.7 349.4 C109.88 383.76 59.41 404.9 12.22 406.36 C-2.69 406.61 -17.57 406.74 -32.31 404.25 C-33.04 404.13 -33.76 404.01 -34.51 403.89 C-82.78 395.72 -128.17 368.82 -158.31 330.25 C-159.39 328.9 -159.39 328.9 -160.49 327.52 C-181.43 300.55 -193.82 269.58 -200.31 236.25 C-200.58 234.98 -200.58 234.98 -200.86 233.69 C-201.52 228.64 -201.48 223.62 -201.48 218.53 C-201.48 217.39 -201.49 216.25 -201.49 215.08 C-201.5 212.68 -201.5 210.27 -201.5 207.87 C-201.5 204.22 -201.52 200.58 -201.54 196.94 C-201.54 194.59 -201.54 192.25 -201.54 189.9 C-201.55 188.83 -201.56 187.76 -201.56 186.65 C-201.42 138.18 -175.33 91.85 -142.25 57.94 C-104.01 20.67 -53.19 0.04 0 0 Z M170 238.56 C168.86 239.76 167.74 240.98 166.69 242.25 C169.29 245.39 172.24 246.49 176 247.94 C177.11 248.37 178.22 248.81 179.36 249.26 C182.67 250.24 185.26 250.44 188.69 250.25 C188.57 248.62 188.45 247 188.31 245.38 C188.24 244.47 188.17 243.57 188.1 242.63 C187.89 240.07 187.89 240.07 185.69 238.25 C179.68 235.41 175.27 233.87 170 238.56 Z " fill="#33529A" transform="translate(201.3125,5.75)"/>
<path d="M0 0 C8.58 0 17.16 0 26 0 C27.53 3.07 27.1 6.27 27.06 9.62 C27.06 10.33 27.05 11.04 27.05 11.77 C27.04 13.51 27.02 15.26 27 17 C28.14 16.99 29.29 16.98 30.46 16.96 C31.96 16.96 33.45 16.95 34.94 16.94 C35.69 16.93 36.45 16.92 37.22 16.91 C39.15 16.9 41.08 16.95 43 17 C44 18 44 18 44.11 20.5 C44.11 21.58 44.1 22.67 44.1 23.79 C44.09 24.95 44.09 26.12 44.09 27.33 C44.08 28.56 44.07 29.79 44.06 31.06 C44.06 32.3 44.05 33.53 44.05 34.81 C44.04 37.87 44.02 40.94 44 44 C41.36 44.33 38.72 44.66 36 45 C35.67 46.98 35.34 48.96 35 51 C36.3 50.98 37.6 50.96 38.94 50.94 C40.29 50.92 41.65 50.93 43 51 C44 52 44 52 44.1 54.07 C44.07 56.38 44.03 58.69 44 61 C41.03 61 38.06 61 35 61 C35 66.28 35 71.56 35 77 C37.64 77 40.28 77 43 77 C43 74.36 43 71.72 43 69 C45.97 69 48.94 69 52 69 C52.33 74.28 52.66 79.56 53 85 C55.31 85.33 57.62 85.66 60 86 C59.99 84.78 59.98 83.57 59.96 82.32 C59.96 80.73 59.95 79.15 59.94 77.56 C59.93 76.76 59.92 75.96 59.91 75.13 C59.9 73.09 59.95 71.04 60 69 C61 68 61 68 64.44 67.81 C68 68 68 68 70 70 C70.28 74.68 70.09 79.31 70 84 C75.28 84.33 80.56 84.66 86 85 C86 88.3 86 91.6 86 95 C80.06 95 74.12 95 68 95 C68 89 68 89 69 87 C66.36 87 63.72 87 61 87 C61 92.28 61 97.56 61 103 C66.61 103 72.22 103 78 103 C78 105.64 78 108.28 78 111 C80.31 111 82.62 111 85 111 C85 108.36 85 105.72 85 103 C93.42 102.5 93.42 102.5 102 102 C102 100.02 102 98.04 102 96 C99.36 95.67 96.72 95.34 94 95 C94 86.42 94 77.84 94 69 C96.64 68.67 99.28 68.34 102 68 C104 70 104 70 104.2 73.7 C104.18 75.17 104.16 76.65 104.12 78.12 C104.12 78.88 104.11 79.63 104.1 80.41 C104.07 82.27 104.04 84.14 104 86 C106.64 86 109.28 86 112 86 C112 94.58 112 103.16 112 112 C109.36 112 106.72 112 104 112 C104 114.64 104 117.28 104 120 C106.64 120 109.28 120 112 120 C112 125.94 112 131.88 112 138 C109.03 138 106.06 138 103 138 C103 135.36 103 132.72 103 130 C100.03 130 97.06 130 94 130 C94 124.39 94 118.78 94 113 C91.69 113 89.38 113 87 113 C87.01 113.81 87.02 114.62 87.04 115.45 C87.04 116.52 87.05 117.59 87.06 118.69 C87.07 119.74 87.09 120.8 87.1 121.89 C87.01 124.72 86.65 127.24 86 130 C83.36 130 80.72 130 78 130 C78 135.28 78 140.56 78 146 C80.31 145.67 82.62 145.34 85 145 C85 142.36 85 139.72 85 137 C88.3 137 91.6 137 95 137 C95 140.3 95 143.6 95 147 C92.36 147 89.72 147 87 147 C87.03 148.42 87.03 148.42 87.06 149.88 C87 153 87 153 86 155 C83.36 155 80.72 155 78 155 C78 157.64 78 160.28 78 163 C80.64 163 83.28 163 86 163 C86 165.64 86 168.28 86 171 C88.64 171 91.28 171 94 171 C94 165.39 94 159.78 94 154 C99.94 154 105.88 154 112 154 C112.17 161.56 112.33 169.12 112.48 176.69 C112.54 179.26 112.59 181.83 112.65 184.4 C112.73 188.1 112.81 191.8 112.88 195.5 C112.92 197.22 112.92 197.22 112.96 198.97 C112.98 200.05 113 201.13 113.02 202.25 C113.05 203.66 113.05 203.66 113.08 205.11 C112.99 208.42 112.47 211.72 112 215 C94.84 215 77.68 215 60 215 C60 209.06 60 203.12 60 197 C62.64 197 65.28 197 68 197 C68 191.72 68 186.44 68 181 C65.69 181 63.38 181 61 181 C61 183.64 61 186.28 61 189 C58.36 189.33 55.72 189.66 53 190 C52.67 195.61 52.34 201.22 52 207 C49.22 207.02 46.43 207.04 43.56 207.06 C42.68 207.07 41.81 207.08 40.9 207.09 C38.93 207.1 36.97 207.05 35 207 C34 206 34 206 33.9 204.15 C33.93 202.1 33.97 200.05 34 198 C31.69 198 29.38 198 27 198 C27 203.61 27 209.22 27 215 C23.7 215 20.4 215 17 215 C17 209.06 17 203.12 17 197 C19.31 196.67 21.62 196.34 24 196 C24.33 191.05 24.66 186.1 25 181 C16.75 181 8.5 181 0 181 C0 175.06 0 169.12 0 163 C2.64 163 5.28 163 8 163 C8 160.69 8 158.38 8 156 C2.72 155.67 -2.56 155.34 -8 155 C-8 165.89 -8 176.78 -8 188 C-2.45 187.96 -2.45 187.96 3.1 187.91 C5.07 187.9 7.03 187.95 9 188 C10 189 10 189 10.1 191.07 C10.07 193.38 10.03 195.69 10 198 C7.03 198 4.06 198 1 198 C1 203.61 1 209.22 1 215 C-2.3 215 -5.6 215 -9 215 C-9 212.36 -9 209.72 -9 207 C-13.95 207 -18.9 207 -24 207 C-24.5 210.96 -24.5 210.96 -25 215 C-27.97 215 -30.94 215 -34 215 C-34 200.48 -34 185.96 -34 171 C-31.36 171 -28.72 171 -26 171 C-26 168.69 -26 166.38 -26 164 C-28.64 164 -31.28 164 -34 164 C-34 158.39 -34 152.78 -34 147 C-35.79 147.01 -37.59 147.02 -39.43 147.04 C-41.77 147.04 -44.1 147.05 -46.44 147.06 C-47.62 147.07 -48.81 147.08 -50.03 147.09 C-51.15 147.09 -52.27 147.09 -53.43 147.1 C-55 147.11 -55 147.11 -56.59 147.11 C-59 147 -59 147 -60 146 C-60.14 143.33 -60.04 140.68 -60 138 C-61.95 138.03 -61.95 138.03 -63.94 138.06 C-65.29 138.08 -66.65 138.07 -68 138 C-69 137 -69 137 -69.1 135.15 C-69.07 133.1 -69.03 131.05 -69 129 C-65.7 129 -62.4 129 -59 129 C-58 131 -58 131 -59 137 C-53.72 137 -48.44 137 -43 137 C-43 134.69 -43 132.38 -43 130 C-45.64 130 -48.28 130 -51 130 C-51 127.03 -51 124.06 -51 121 C-59.25 121 -67.5 121 -76 121 C-76 123.97 -76 126.94 -76 130 C-79.3 130 -82.6 130 -86 130 C-86 127.03 -86 124.06 -86 121 C-88.31 121 -90.62 121 -93 121 C-92.99 121.75 -92.99 122.5 -92.98 123.28 C-92.96 126.67 -92.95 130.05 -92.94 133.44 C-92.93 134.62 -92.92 135.81 -92.91 137.03 C-92.91 138.15 -92.91 139.27 -92.9 140.43 C-92.9 141.48 -92.89 142.52 -92.89 143.59 C-93 146 -93 146 -94 147 C-100.53 147.24 -100.53 147.24 -103 146 C-103.02 141.18 -103.04 136.35 -103.05 131.53 C-103.06 129.89 -103.07 128.24 -103.08 126.6 C-103.09 124.25 -103.09 121.89 -103.1 119.54 C-103.1 118.8 -103.11 118.06 -103.11 117.3 C-103.11 115.53 -103.06 113.77 -103 112 C-102 111 -102 111 -100.15 110.9 C-98.1 110.93 -96.05 110.97 -94 111 C-94 108.36 -94 105.72 -94 103 C-91.36 103 -88.72 103 -86 103 C-86 97.72 -86 92.44 -86 87 C-88.64 87 -91.28 87 -94 87 C-94.33 84.36 -94.66 81.72 -95 79 C-98.96 78.5 -98.96 78.5 -103 78 C-103 75.03 -103 72.06 -103 69 C-88.48 69 -73.96 69 -59 69 C-59 71.64 -59 74.28 -59 77 C-56.36 77 -53.72 77 -51 77 C-51 74.36 -51 71.72 -51 69 C-42.75 69 -34.5 69 -26 69 C-26 66.36 -26 63.72 -26 61 C-28.64 61 -31.28 61 -34 61 C-34.2 58.94 -34.38 56.88 -34.56 54.81 C-34.72 53.09 -34.72 53.09 -34.88 51.33 C-34.99 48.31 -34.74 45.91 -34 43 C-30.53 42.5 -30.53 42.5 -27 42 C-26.67 40.02 -26.34 38.04 -26 36 C-28.64 36 -31.28 36 -34 36 C-34 32.7 -34 29.4 -34 26 C-25.42 26 -16.84 26 -8 26 C-8 29.3 -8 32.6 -8 36 C-10.64 36 -13.28 36 -16 36 C-16 40.95 -16 45.9 -16 51 C-13.69 51 -11.38 51 -9 51 C-9 48.36 -9 45.72 -9 43 C-3.39 43 2.22 43 8 43 C8 40.69 8 38.38 8 36 C5.36 36 2.72 36 0 36 C0 29.73 0 23.46 0 17 C2.64 17 5.28 17 8 17 C8 14.69 8 12.38 8 10 C5.36 10 2.72 10 0 10 C0 6.7 0 3.4 0 0 Z M18 19 C17.96 21 17.96 23 18 25 C19.07 26.3 19.07 26.3 21.56 26.06 C22.37 26.04 23.17 26.02 24 26 C24.66 23.69 25.32 21.38 26 19 C21.9 17.98 21.9 17.98 18 19 Z M18 36 C18 40.95 18 45.9 18 51 C20.31 51 22.62 51 25 51 C25.33 48.69 25.66 46.38 26 44 C27.7 43.78 27.7 43.78 29.44 43.56 C32.81 43.39 32.81 43.39 34 42 C34 40.02 34 38.04 34 36 C28.72 36 23.44 36 18 36 Z M-25 53 C-25 55.31 -25 57.62 -25 60 C-22.36 60 -19.72 60 -17 60 C-17 57.69 -17 55.38 -17 53 C-19.64 53 -22.28 53 -25 53 Z M-8 53 C-8 55.31 -8 57.62 -8 60 C-5.36 60 -2.72 60 0 60 C0 57.69 0 55.38 0 53 C-2.64 53 -5.28 53 -8 53 Z M9 53 C9 55.64 9 58.28 9 61 C6.36 61 3.72 61 1 61 C1 66.61 1 72.22 1 78 C-2.3 78 -5.6 78 -9 78 C-9 75.36 -9 72.72 -9 70 C-11.31 70 -13.62 70 -16 70 C-16 72.64 -16 75.28 -16 78 C-21.61 78 -27.22 78 -33 78 C-33 80.64 -33 83.28 -33 86 C-30.36 86 -27.72 86 -25 86 C-25 91.61 -25 97.22 -25 103 C-22.03 103 -19.06 103 -16 103 C-16 105.97 -16 108.94 -16 112 C-18.97 112 -21.94 112 -25 112 C-25 114.64 -25 117.28 -25 120 C-13.55 121.01 -2.46 120.86 9 120 C9 123.3 9 126.6 9 130 C6.36 130 3.72 130 1 130 C1 135.28 1 140.56 1 146 C3.31 145.67 5.62 145.34 8 145 C8 142.36 8 139.72 8 137 C11.3 137 14.6 137 18 137 C18 142.61 18 148.22 18 154 C20.31 154 22.62 154 25 154 C25.33 151.36 25.66 148.72 26 146 C27.13 146.02 28.27 146.04 29.44 146.06 C32.82 146.42 32.82 146.42 34 145 C34.04 142.67 34.04 140.33 34 138 C31.03 138 28.06 138 25 138 C25 135.36 25 132.72 25 130 C22.36 130 19.72 130 17 130 C17 126.7 17 123.4 17 120 C19.97 120 22.94 120 26 120 C26 117.36 26 114.72 26 112 C28.64 112 31.28 112 34 112 C34.5 115.96 34.5 115.96 35 120 C37.31 120 39.62 120 42 120 C42.33 117.03 42.66 114.06 43 111 C45.64 111 48.28 111 51 111 C51 105.72 51 100.44 51 95 C48.69 95 46.38 95 44 95 C44 97.97 44 100.94 44 104 C40.7 104 37.4 104 34 104 C34 101.03 34 98.06 34 95 C31.36 95 28.72 95 26 95 C26 92.03 26 89.06 26 86 C28.31 85.67 30.62 85.34 33 85 C33.33 82.69 33.66 80.38 34 78 C25.75 77.67 17.5 77.34 9 77 C8.5 73.04 8.5 73.04 8 69 C13.61 69 19.22 69 25 69 C25.33 66.69 25.66 64.38 26 62 C25.02 60.79 25.02 60.79 23.15 60.9 C21.1 60.93 19.05 60.97 17 61 C17 58.36 17 55.72 17 53 C14.36 53 11.72 53 9 53 Z M27 53 C27 55.31 27 57.62 27 60 C29.31 60 31.62 60 34 60 C34 57.69 34 55.38 34 53 C31.69 53 29.38 53 27 53 Z M-67 78 C-68.13 83.36 -68.1 88.55 -68 94 C-65.36 94 -62.72 94 -60 94 C-59.97 91.52 -59.95 89.04 -59.94 86.56 C-59.93 85.86 -59.92 85.15 -59.91 84.42 C-59.9 82.61 -59.95 80.81 -60 79 C-61.13 77.64 -61.13 77.64 -64.06 77.94 C-65.03 77.96 -66 77.98 -67 78 Z M-50 78 C-50 80.64 -50 83.28 -50 86 C-48 86.04 -46 86.04 -44 86 C-42.66 84.88 -42.66 84.88 -42.88 82 C-42.66 79.12 -42.66 79.12 -44 78 C-46 77.96 -48 77.96 -50 78 Z M-42 87 C-42 89.31 -42 91.62 -42 94 C-39.36 94 -36.72 94 -34 94 C-34 91.69 -34 89.38 -34 87 C-36.64 87 -39.28 87 -42 87 Z M-76 96 C-76 98.31 -76 100.62 -76 103 C-73.69 103 -71.38 103 -69 103 C-69 100.36 -69 97.72 -69 95 C-72.63 94.85 -72.63 94.85 -76 96 Z M-59 95 C-59 97.97 -59 100.94 -59 104 C-61.97 104 -64.94 104 -68 104 C-68 106.31 -68 108.62 -68 111 C-62.39 111 -56.78 111 -51 111 C-51 108.36 -51 105.72 -51 103 C-48.36 103 -45.72 103 -43 103 C-43 100.36 -43 97.72 -43 95 C-48.28 95 -53.56 95 -59 95 Z M-33 104 C-33 106.31 -33 108.62 -33 111 C-30.69 111 -28.38 111 -26 111 C-26 108.69 -26 106.38 -26 104 C-28.31 104 -30.62 104 -33 104 Z M-50 112 C-50 114.64 -50 117.28 -50 120 C-44.72 120 -39.44 120 -34 120 C-34 117.36 -34 114.72 -34 112 C-39.28 112 -44.56 112 -50 112 Z M-85 113 C-85 115.31 -85 117.62 -85 120 C-82.36 120 -79.72 120 -77 120 C-77 117.69 -77 115.38 -77 113 C-79.64 113 -82.28 113 -85 113 Z M52 113 C52 120.92 52 128.84 52 137 C54.64 137 57.28 137 60 137 C60 129.08 60 121.16 60 113 C56 111.67 56 111.67 52 113 Z M70 113 C69.67 115.31 69.34 117.62 69 120 C71.64 120 74.28 120 77 120 C77 117.69 77 115.38 77 113 C74.69 113 72.38 113 70 113 Z M-33 121 C-33 123.64 -33 126.28 -33 129 C-30.69 129 -28.38 129 -26 129 C-26 126.36 -26 123.72 -26 121 C-28.31 121 -30.62 121 -33 121 Z M-13 123 C-13.33 124.65 -13.66 126.3 -14 128 C-19.44 128.99 -19.44 128.99 -25 130 C-25 134.95 -25 139.9 -25 145 C-22.03 145.33 -19.06 145.66 -16 146 C-16 148.64 -16 151.28 -16 154 C-13.69 154 -11.38 154 -9 154 C-8.94 149.94 -8.91 145.88 -8.88 141.81 C-8.86 140.66 -8.84 139.51 -8.82 138.33 C-8.82 137.21 -8.81 136.1 -8.8 134.96 C-8.79 133.94 -8.78 132.91 -8.77 131.86 C-9.01 128.84 -9.63 126.7 -11 124 C-11.66 123.67 -12.32 123.34 -13 123 Z M35 130 C35 132.31 35 134.62 35 137 C37.64 137 40.28 137 43 137 C43 134.69 43 132.38 43 130 C40.36 130 37.72 130 35 130 Z M44 147 C44 154.92 44 162.84 44 171 C51.92 171 59.84 171 68 171 C68 163.08 68 155.16 68 147 C60.08 147 52.16 147 44 147 Z M27 155 C27 157.64 27 160.28 27 163 C30.47 162.5 30.47 162.5 34 162 C34 159.69 34 157.38 34 155 C31.69 155 29.38 155 27 155 Z M18 164 C18 166.31 18 168.62 18 171 C20.31 171 22.62 171 25 171 C25 168.69 25 166.38 25 164 C22.69 164 20.38 164 18 164 Z M-25 172 C-25 177.28 -25 182.56 -25 188 C-22.36 188 -19.72 188 -17 188 C-16.97 185.52 -16.95 183.04 -16.94 180.56 C-16.93 179.86 -16.92 179.15 -16.91 178.42 C-16.9 176.61 -16.95 174.81 -17 173 C-17.33 172.67 -17.66 172.34 -18 172 C-20.31 172 -22.62 172 -25 172 Z M35 181 C34.97 183.48 34.95 185.96 34.94 188.44 C34.93 189.14 34.92 189.85 34.91 190.58 C34.9 192.39 34.95 194.19 35 196 C36.07 197.3 36.07 197.3 38.56 197.06 C39.77 197.03 39.77 197.03 41 197 C42.75 193.23 43.22 190.33 43.12 186.19 C43.11 185.21 43.09 184.24 43.07 183.23 C43.05 182.49 43.02 181.76 43 181 C40.36 181 37.72 181 35 181 Z M-16 189 C-16 191.64 -16 194.28 -16 197 C-13.69 197 -11.38 197 -9 197 C-9 194.36 -9 191.72 -9 189 C-11.31 189 -13.62 189 -16 189 Z " fill="#172950" transform="translate(197,106)"/>
<path d="M0 0 C1.79 0.01 3.57 0.01 5.36 0.01 C9.7 0.02 14.04 0.04 18.38 0.06 C18.38 1.05 18.38 2.04 18.38 3.06 C19.98 3.15 19.98 3.15 21.62 3.25 C23.02 3.33 24.42 3.42 25.81 3.5 C26.52 3.54 27.23 3.58 27.96 3.62 C33.26 3.95 33.26 3.95 34.38 5.06 C35.97 5.21 37.56 5.32 39.16 5.41 C45.68 5.95 51.6 7.6 57.81 9.56 C59.51 10.09 59.51 10.09 61.24 10.63 C79.89 16.64 100.3 25.21 115.38 38.06 C115.38 38.72 115.38 39.38 115.38 40.06 C115.91 40.14 116.44 40.21 117 40.29 C120.3 41.37 122.75 43.37 125.44 45.5 C126 45.95 126.57 46.39 127.15 46.85 C128.9 48.25 130.64 49.65 132.38 51.06 C132.91 51.49 133.45 51.91 134 52.35 C140.85 57.81 145.08 62.21 146.38 71.06 C147.69 71.06 149.01 71.06 150.38 71.06 C150.7 72.05 151.04 73.04 151.38 74.06 C152.87 75.3 154.37 76.53 155.88 77.75 C159.8 81.19 160.79 85.02 161.38 90.06 C162.86 89.57 162.86 89.57 164.38 89.06 C164.38 90.05 164.38 91.04 164.38 92.06 C165.04 92.39 165.69 92.72 166.38 93.06 C166.05 93.72 165.71 94.38 165.38 95.06 C166.04 95.06 166.69 95.06 167.38 95.06 C168 96.94 168 96.94 168.38 99.06 C167.71 99.72 167.06 100.38 166.38 101.06 C165.73 103.63 165.73 103.63 165.38 106.06 C160.89 106.28 157.41 106.12 153.38 104.06 C148.38 97.87 148.38 97.87 148.38 94.06 C147.71 94.06 147.06 94.06 146.38 94.06 C144.08 91.5 143.38 90.58 143.38 87.06 C142.38 86.73 141.39 86.4 140.38 86.06 C138.73 84.39 138.73 84.39 137 82.31 C134.92 79.84 132.84 77.48 130.5 75.25 C128.38 73.06 128.38 73.06 127.38 70.06 C126.05 69.38 124.72 68.71 123.38 68.06 C122.43 67.2 121.48 66.33 120.5 65.44 C116.98 62.76 115.66 62.67 111.38 63.06 C110.71 62.73 110.06 62.4 109.38 62.06 C107.67 61.99 105.96 61.98 104.25 62 C103.34 62.01 102.43 62.02 101.49 62.03 C100.79 62.04 100.09 62.05 99.38 62.06 C99.05 62.72 98.71 63.38 98.38 64.06 C98.38 62.74 98.38 61.42 98.38 60.06 C97.71 60.62 97.06 61.18 96.38 61.75 C92.99 63.23 92.49 63.09 89.19 61.88 C86.65 60.81 85.35 60.04 83.38 58.06 C81.04 57.39 78.71 56.72 76.38 56.06 C74.08 55.02 71.81 53.93 69.56 52.81 C57.11 46.81 43.92 42.76 30.38 40.06 C29.01 39.77 29.01 39.77 27.62 39.48 C20.25 38 12.89 37.4 5.38 37.06 C4.22 37 3.06 36.93 1.88 36.86 C-30.27 35.88 -63.8 45.51 -90.2 63.88 C-94.75 66.93 -98.19 67.54 -103.62 68.06 C-103.95 68.72 -104.28 69.38 -104.62 70.06 C-106.63 73.06 -106.63 73.06 -109.25 73.75 C-110.03 73.85 -110.82 73.96 -111.62 74.06 C-111.62 75.38 -111.62 76.7 -111.62 78.06 C-112.28 78.06 -112.94 78.06 -113.62 78.06 C-113.62 78.72 -113.62 79.38 -113.62 80.06 C-115.29 81.06 -116.96 82.06 -118.62 83.06 C-119.33 83.93 -120.03 84.8 -120.75 85.69 C-124.95 89.15 -129.29 89.18 -134.62 89.06 C-135.28 88.73 -135.94 88.4 -136.62 88.06 C-136.62 88.72 -136.62 89.38 -136.62 90.06 C-138.6 90.06 -140.59 90.06 -142.62 90.06 C-142.91 90.99 -143.2 91.92 -143.5 92.88 C-144.62 96.06 -144.62 96.06 -146.62 99.06 C-146.62 99.72 -146.62 100.38 -146.62 101.06 C-147.62 101.06 -148.6 101.06 -149.62 101.06 C-149.85 101.62 -150.08 102.18 -150.31 102.75 C-151.98 105.69 -154.18 107.74 -156.62 110.06 C-156.62 109.4 -156.62 108.74 -156.62 108.06 C-157.28 108.06 -157.94 108.06 -158.62 108.06 C-158.89 108.76 -159.16 109.47 -159.43 110.19 C-160.7 113.25 -162.2 116.12 -163.75 119.06 C-170.51 132.4 -175.45 146.29 -179 160.81 C-179.24 161.78 -179.48 162.75 -179.72 163.75 C-183.42 179.78 -183.88 195.5 -183.69 211.88 C-183.66 214.72 -183.64 217.56 -183.62 220.4 C-183.6 222.14 -183.59 223.89 -183.56 225.64 C-183.56 226.43 -183.55 227.21 -183.54 228.02 C-183.53 228.71 -183.53 229.39 -183.52 230.1 C-183.62 232.06 -183.62 232.06 -184.19 234.25 C-184.41 235.15 -184.41 235.15 -184.62 236.06 C-184.3 236.39 -183.97 236.72 -183.62 237.06 C-183.39 238.91 -183.21 240.77 -183.06 242.62 C-182.98 243.64 -182.89 244.65 -182.81 245.69 C-182.75 246.47 -182.69 247.26 -182.62 248.06 C-183.28 247.73 -183.94 247.4 -184.62 247.06 C-185.25 245 -185.25 245 -185.62 243.06 C-185.95 244.05 -186.28 245.04 -186.62 246.06 C-187.28 246.06 -187.94 246.06 -188.62 246.06 C-188.62 246.72 -188.62 247.38 -188.62 248.06 C-192.62 248.06 -192.62 248.06 -195.62 246.06 C-194.97 245.73 -194.31 245.4 -193.62 245.06 C-193.62 241.76 -193.62 238.46 -193.62 235.06 C-195.28 235.06 -196.93 235.06 -198.62 235.06 C-198.29 232.75 -197.97 230.44 -197.62 228.06 C-198.28 227.73 -198.94 227.4 -199.62 227.06 C-201.58 222.5 -201.93 218.24 -201.93 213.34 C-201.93 212.61 -201.94 211.87 -201.94 211.12 C-201.95 208.74 -201.95 206.37 -201.94 204 C-201.94 202.79 -201.94 202.79 -201.93 201.55 C-201.89 188.83 -201.16 176.56 -198.62 164.06 C-198.48 163.29 -198.34 162.53 -198.19 161.73 C-195.15 145.66 -189.82 130.74 -182.62 116.06 C-183.28 115.73 -183.94 115.4 -184.62 115.06 C-175.67 97.94 -165.96 82.15 -152.62 68.06 C-151.41 66.67 -150.2 65.28 -149 63.88 C-118.12 28.62 -69.21 4.35 -22.69 0.21 C-15.13 -0.16 -7.56 -0.04 0 0 Z " fill="#33A0DA" transform="translate(202.625,5.9375)"/>
<path d="M0 0 C0.99 0.33 1.98 0.66 3 1 C3.87 2.9 3.87 2.9 4.58 5.42 C4.85 6.37 5.12 7.31 5.4 8.29 C5.82 9.84 5.82 9.84 6.25 11.42 C6.56 12.49 6.86 13.57 7.17 14.67 C8.13 18.11 9.07 21.55 10 25 C10.3 26.1 10.6 27.2 10.9 28.33 C12.66 34.86 14.39 41.4 16.08 47.95 C16.96 51.32 17.84 54.68 18.72 58.05 C19.28 60.2 19.84 62.36 20.4 64.52 C20.66 65.51 20.93 66.51 21.2 67.54 C21.44 68.46 21.67 69.39 21.92 70.34 C22.23 71.55 22.23 71.55 22.55 72.78 C23 75 23 75 23 79 C15.55 76.6 8.29 73.84 1 71 C-1.97 76.94 -4.94 82.88 -8 89 C-8.99 89 -9.98 89 -11 89 C-11.26 89.71 -11.51 90.42 -11.78 91.15 C-15.45 99.71 -21.74 107.16 -27.69 114.24 C-29.32 116.19 -30.92 118.14 -32.5 120.13 C-33.3 121.14 -34.11 122.15 -34.94 123.19 C-35.67 124.11 -36.4 125.03 -37.15 125.98 C-37.76 126.65 -38.37 127.31 -39 128 C-39.66 128 -40.32 128 -41 128 C-41.33 128.99 -41.66 129.98 -42 131 C-42.66 131 -43.32 131 -44 131 C-44.33 131.99 -44.66 132.98 -45 134 C-47.47 136.55 -50.27 138.74 -53 141 C-53.73 141.62 -54.47 142.24 -55.23 142.88 C-69.98 155.07 -88.65 168.05 -107 174 C-109.86 173.65 -109.86 173.65 -112 173 C-111.67 172.34 -111.34 171.68 -111 171 C-108.94 170.38 -108.94 170.38 -107 170 C-108.98 169.67 -110.96 169.34 -113 169 C-113 169.66 -113 170.32 -113 171 C-113.66 171 -114.32 171 -115 171 C-115.66 169.68 -116.32 168.36 -117 167 C-118.03 167.02 -119.06 167.04 -120.12 167.06 C-124 167 -124 167 -126.64 166.35 C-131.3 165.86 -135.1 167.06 -139.56 168.31 C-153.14 172.07 -166.1 173.35 -180.14 173.32 C-182.73 173.31 -185.33 173.34 -187.92 173.36 C-198.92 173.4 -209.24 172.31 -220 170 C-221 167 -221 167 -221 164 C-219.02 163.67 -217.04 163.34 -215 163 C-215 163.66 -215 164.32 -215 165 C-214.19 164.51 -214.19 164.51 -213.36 164.01 C-210.49 162.78 -208.35 162.8 -205.25 162.88 C-204.27 162.89 -203.28 162.91 -202.27 162.93 C-201.52 162.95 -200.77 162.98 -200 163 C-199.67 162.34 -199.34 161.68 -199 161 C-202.96 161 -206.92 161 -211 161 C-211.33 160.01 -211.66 159.02 -212 158 C-213.65 158 -215.3 158 -217 158 C-216.67 157.01 -216.34 156.02 -216 155 C-210.82 152.46 -206.01 152.96 -200.44 153.38 C-198.63 153.48 -196.82 153.59 -195.01 153.7 C-194.14 153.75 -193.27 153.8 -192.37 153.86 C-174.66 154.93 -156.17 153.13 -139.4 147.18 C-136 146 -136 146 -132.14 145.09 C-127.45 143.96 -123.19 142.06 -118.81 140.06 C-118.03 139.72 -117.25 139.37 -116.45 139.01 C-109.28 135.88 -109.28 135.88 -103.15 131.13 C-100.25 128.26 -96.96 126.18 -93.56 123.94 C-69.78 107.9 -46.68 84.49 -37 57 C-37.6 56.85 -38.19 56.71 -38.8 56.56 C-41.5 55.89 -44.19 55.23 -46.88 54.56 C-47.81 54.33 -48.75 54.1 -49.71 53.87 C-50.61 53.64 -51.51 53.42 -52.43 53.19 C-53.26 52.99 -54.08 52.78 -54.94 52.57 C-57 52 -57 52 -59 51 C-59 50.34 -59 49.68 -59 49 C-57.49 47.63 -55.91 46.33 -54.31 45.06 C-53.31 44.26 -52.3 43.46 -51.27 42.63 C-50.73 42.2 -50.2 41.77 -49.65 41.33 C-46.89 39.1 -44.2 36.8 -41.5 34.5 C-37.48 31.08 -33.42 27.7 -29.31 24.38 C-25.84 21.55 -22.48 18.65 -19.19 15.62 C-15.08 11.9 -10.87 8.35 -6.56 4.88 C-5.96 4.38 -5.36 3.88 -4.73 3.37 C-3 1.99 -3 1.99 0 0 Z M-15.69 23.31 C-16.83 24.51 -17.94 25.73 -19 27 C-16.4 30.14 -13.45 31.24 -9.69 32.69 C-8.58 33.12 -7.47 33.56 -6.32 34.01 C-3.02 34.99 -0.42 35.19 3 35 C2.89 33.37 2.76 31.75 2.62 30.12 C2.56 29.22 2.49 28.32 2.41 27.38 C2.2 24.82 2.2 24.82 0 23 C-6 20.16 -10.42 18.62 -15.69 23.31 Z " fill="#334B97" transform="translate(387,221)"/>
<path d="M0 0 C8.58 0 17.16 0 26 0 C27.53 3.07 27.1 6.27 27.06 9.62 C27.06 10.33 27.05 11.04 27.05 11.77 C27.04 13.51 27.02 15.26 27 17 C28.14 16.99 29.29 16.98 30.46 16.96 C31.96 16.96 33.45 16.95 34.94 16.94 C35.69 16.93 36.45 16.92 37.22 16.91 C39.15 16.9 41.08 16.95 43 17 C44 18 44 18 44.11 20.5 C44.11 21.58 44.1 22.67 44.1 23.79 C44.09 24.95 44.09 26.12 44.09 27.33 C44.08 28.56 44.07 29.79 44.06 31.06 C44.06 32.3 44.05 33.53 44.05 34.81 C44.04 37.87 44.02 40.94 44 44 C41.36 44.33 38.72 44.66 36 45 C35.67 46.98 35.34 48.96 35 51 C36.3 50.98 37.6 50.96 38.94 50.94 C40.29 50.92 41.65 50.93 43 51 C44 52 44 52 44.1 54.07 C44.07 56.38 44.03 58.69 44 61 C41.03 61 38.06 61 35 61 C35 65.95 35 70.9 35 76 C28.26 79.37 17.23 76.63 10 76 C10 74.02 10 72.04 10 70 C14.62 69.67 19.24 69.34 24 69 C24.33 66.69 24.66 64.38 25 62 C22.36 61.67 19.72 61.34 17 61 C17 58.36 17 55.72 17 53 C14.36 53 11.72 53 9 53 C9 55.64 9 58.28 9 61 C6.36 61 3.72 61 1 61 C1 66.61 1 72.22 1 78 C-2.3 78 -5.6 78 -9 78 C-9 75.36 -9 72.72 -9 70 C-11.31 70 -13.62 70 -16 70 C-16 72.64 -16 75.28 -16 78 C-21.61 78 -27.22 78 -33 78 C-33 80.64 -33 83.28 -33 86 C-30.36 86 -27.72 86 -25 86 C-25 91.61 -25 97.22 -25 103 C-22.03 103 -19.06 103 -16 103 C-16 105.97 -16 108.94 -16 112 C-18.97 112 -21.94 112 -25 112 C-24.98 112.97 -24.96 113.94 -24.94 114.94 C-25 118 -25 118 -26 119 C-28.67 119.14 -31.32 119.04 -34 119 C-34 116.69 -34 114.38 -34 112 C-39.28 112 -44.56 112 -50 112 C-50 113.98 -50 115.96 -50 118 C-52.56 119.28 -54.37 119.11 -57.23 119.1 C-58.77 119.09 -58.77 119.09 -60.35 119.09 C-61.43 119.08 -62.51 119.07 -63.62 119.06 C-65.26 119.06 -65.26 119.06 -66.92 119.05 C-69.61 119.04 -72.31 119.02 -75 119 C-75 116.69 -75 114.38 -75 112 C-78.3 111.67 -81.6 111.34 -85 111 C-85 113.97 -85 116.94 -85 120 C-81.53 120.5 -81.53 120.5 -78 121 C-78 123.31 -78 125.62 -78 128 C-80.31 128 -82.62 128 -85 128 C-85.33 128.66 -85.66 129.32 -86 130 C-86 127.03 -86 124.06 -86 121 C-88.31 121 -90.62 121 -93 121 C-92.99 121.75 -92.99 122.5 -92.98 123.28 C-92.96 126.67 -92.95 130.05 -92.94 133.44 C-92.93 134.62 -92.92 135.81 -92.91 137.03 C-92.91 138.15 -92.91 139.27 -92.9 140.43 C-92.9 141.48 -92.89 142.52 -92.89 143.59 C-93 146 -93 146 -94 147 C-100.53 147.24 -100.53 147.24 -103 146 C-103.02 141.18 -103.04 136.35 -103.05 131.53 C-103.06 129.89 -103.07 128.24 -103.08 126.6 C-103.09 124.25 -103.09 121.89 -103.1 119.54 C-103.1 118.8 -103.11 118.06 -103.11 117.3 C-103.11 115.53 -103.06 113.77 -103 112 C-102 111 -102 111 -100.15 110.9 C-98.1 110.93 -96.05 110.97 -94 111 C-94 108.36 -94 105.72 -94 103 C-91.36 103 -88.72 103 -86 103 C-86 97.72 -86 92.44 -86 87 C-88.64 87 -91.28 87 -94 87 C-94.33 84.36 -94.66 81.72 -95 79 C-98.96 78.5 -98.96 78.5 -103 78 C-103 75.03 -103 72.06 -103 69 C-88.48 69 -73.96 69 -59 69 C-59 71.64 -59 74.28 -59 77 C-56.36 77 -53.72 77 -51 77 C-51 74.36 -51 71.72 -51 69 C-42.75 69 -34.5 69 -26 69 C-26 66.36 -26 63.72 -26 61 C-28.64 61 -31.28 61 -34 61 C-34.2 58.94 -34.38 56.88 -34.56 54.81 C-34.72 53.09 -34.72 53.09 -34.88 51.33 C-34.99 48.31 -34.74 45.91 -34 43 C-30.53 42.5 -30.53 42.5 -27 42 C-26.67 40.02 -26.34 38.04 -26 36 C-28.64 36 -31.28 36 -34 36 C-34 32.7 -34 29.4 -34 26 C-25.42 26 -16.84 26 -8 26 C-8 29.3 -8 32.6 -8 36 C-10.64 36 -13.28 36 -16 36 C-16 40.95 -16 45.9 -16 51 C-13.69 51 -11.38 51 -9 51 C-9 48.36 -9 45.72 -9 43 C-3.39 43 2.22 43 8 43 C8 40.69 8 38.38 8 36 C5.36 36 2.72 36 0 36 C0 29.73 0 23.46 0 17 C2.64 17 5.28 17 8 17 C8 14.69 8 12.38 8 10 C5.36 10 2.72 10 0 10 C0 6.7 0 3.4 0 0 Z M18 19 C17.96 21 17.96 23 18 25 C19.07 26.3 19.07 26.3 21.56 26.06 C22.37 26.04 23.17 26.02 24 26 C24.66 23.69 25.32 21.38 26 19 C21.9 17.98 21.9 17.98 18 19 Z M18 36 C18 40.95 18 45.9 18 51 C20.31 51 22.62 51 25 51 C25.33 48.69 25.66 46.38 26 44 C27.7 43.78 27.7 43.78 29.44 43.56 C32.81 43.39 32.81 43.39 34 42 C34 40.02 34 38.04 34 36 C28.72 36 23.44 36 18 36 Z M-25 53 C-25 55.31 -25 57.62 -25 60 C-22.36 60 -19.72 60 -17 60 C-17 57.69 -17 55.38 -17 53 C-19.64 53 -22.28 53 -25 53 Z M-8 53 C-8 55.31 -8 57.62 -8 60 C-5.36 60 -2.72 60 0 60 C0 57.69 0 55.38 0 53 C-2.64 53 -5.28 53 -8 53 Z M27 53 C27 55.31 27 57.62 27 60 C29.31 60 31.62 60 34 60 C34 57.69 34 55.38 34 53 C31.69 53 29.38 53 27 53 Z M-67 78 C-68.13 83.36 -68.1 88.55 -68 94 C-65.36 94 -62.72 94 -60 94 C-59.97 91.52 -59.95 89.04 -59.94 86.56 C-59.93 85.86 -59.92 85.15 -59.91 84.42 C-59.9 82.61 -59.95 80.81 -60 79 C-61.13 77.64 -61.13 77.64 -64.06 77.94 C-65.03 77.96 -66 77.98 -67 78 Z M-50 78 C-50 80.64 -50 83.28 -50 86 C-48 86.04 -46 86.04 -44 86 C-42.66 84.88 -42.66 84.88 -42.88 82 C-42.66 79.12 -42.66 79.12 -44 78 C-46 77.96 -48 77.96 -50 78 Z M-42 87 C-42 89.31 -42 91.62 -42 94 C-39.36 94 -36.72 94 -34 94 C-34 91.69 -34 89.38 -34 87 C-36.64 87 -39.28 87 -42 87 Z M-76 96 C-76 98.31 -76 100.62 -76 103 C-73.69 103 -71.38 103 -69 103 C-69 100.36 -69 97.72 -69 95 C-72.63 94.85 -72.63 94.85 -76 96 Z M-59 95 C-59 97.97 -59 100.94 -59 104 C-61.97 104 -64.94 104 -68 104 C-68 106.31 -68 108.62 -68 111 C-62.39 111 -56.78 111 -51 111 C-51 108.36 -51 105.72 -51 103 C-48.36 103 -45.72 103 -43 103 C-43 100.36 -43 97.72 -43 95 C-48.28 95 -53.56 95 -59 95 Z M-33 104 C-33 106.31 -33 108.62 -33 111 C-30.69 111 -28.38 111 -26 111 C-26 108.69 -26 106.38 -26 104 C-28.31 104 -30.62 104 -33 104 Z " fill="#1C486D" transform="translate(197,106)"/>
<path d="M0 0 C1.87 0.27 1.87 0.27 3.77 0.55 C18.01 2.86 31.56 7.71 44.88 13.15 C46.56 13.83 48.28 14.43 50 15 C50 15.66 50 16.32 50 17 C50.86 17.25 51.71 17.5 52.6 17.75 C57.42 19.52 61.4 22.32 65.68 25.12 C68.97 27.16 68.97 27.16 72.85 28.06 C74.41 28.53 74.41 28.53 76 29 C76.33 29.99 76.66 30.98 77 32 C78.32 31.67 79.64 31.34 81 31 C81 30.34 81 29.68 81 29 C82.98 29 84.96 29 87 29 C87.33 27.35 87.66 25.7 88 24 C88.66 24 89.32 24 90 24 C90.33 23.34 90.66 22.68 91 22 C89.68 21.67 88.36 21.34 87 21 C87 20.34 87 19.68 87 19 C91.54 20.46 94.72 23.03 98.25 26.12 C98.82 26.62 99.38 27.11 99.97 27.62 C101.11 28.62 102.25 29.62 103.39 30.62 C104.81 31.84 106.27 33 107.74 34.15 C113.48 38.75 115.71 42.75 117 50 C118.32 50 119.64 50 121 50 C121.33 50.99 121.66 51.98 122 53 C123.5 54.24 124.99 55.47 126.5 56.68 C130.42 60.13 131.41 63.96 132 69 C133.49 68.5 133.49 68.5 135 68 C135 68.99 135 69.98 135 71 C135.66 71.33 136.32 71.66 137 72 C136.67 72.66 136.34 73.32 136 74 C136.66 74 137.32 74 138 74 C138.62 75.88 138.62 75.88 139 78 C138.34 78.66 137.68 79.32 137 80 C136.35 82.57 136.35 82.57 136 85 C131.52 85.21 128.03 85.06 124 83 C119 76.81 119 76.81 119 73 C118.34 73 117.68 73 117 73 C114.7 70.44 114 69.52 114 66 C113.01 65.67 112.02 65.34 111 65 C109.35 63.33 109.35 63.33 107.62 61.25 C105.54 58.78 103.47 56.41 101.12 54.19 C99 52 99 52 98 49 C96.68 48.31 95.34 47.65 94 47 C93.05 46.13 92.1 45.27 91.12 44.38 C87.6 41.7 86.28 41.61 82 42 C81.34 41.67 80.68 41.34 80 41 C78.29 40.93 76.58 40.92 74.88 40.94 C73.96 40.95 73.05 40.96 72.12 40.96 C71.42 40.98 70.72 40.99 70 41 C69.67 41.66 69.34 42.32 69 43 C69 41.68 69 40.36 69 39 C68.01 39.84 68.01 39.84 67 40.69 C63.61 42.17 63.12 42.03 59.81 40.81 C57.27 39.75 55.98 38.98 54 37 C51.67 36.33 49.33 35.66 47 35 C44.71 33.96 42.44 32.87 40.19 31.75 C27.73 25.75 14.55 21.7 1 19 C-0.36 18.71 -0.36 18.71 -1.75 18.41 C-9.13 16.93 -16.49 16.34 -24 16 C-25.16 15.93 -26.31 15.87 -27.5 15.8 C-59.64 14.81 -93.17 24.44 -119.58 42.81 C-124.12 45.87 -127.56 46.48 -133 47 C-133.5 47.99 -133.5 47.99 -134 49 C-136 52 -136 52 -138.62 52.69 C-139.8 52.84 -139.8 52.84 -141 53 C-141 54.32 -141 55.64 -141 57 C-141.66 57 -142.32 57 -143 57 C-143 57.66 -143 58.32 -143 59 C-144.67 60 -146.33 61 -148 62 C-148.7 62.87 -149.4 63.73 -150.12 64.62 C-154.32 68.09 -158.67 68.12 -164 68 C-164.66 67.67 -165.32 67.34 -166 67 C-166 67.66 -166 68.32 -166 69 C-167.98 69 -169.96 69 -172 69 C-172.29 69.93 -172.58 70.86 -172.88 71.81 C-174 75 -174 75 -176 78 C-176 78.66 -176 79.32 -176 80 C-176.99 80 -177.98 80 -179 80 C-179.23 80.56 -179.45 81.11 -179.69 81.69 C-181.36 84.63 -183.55 86.68 -186 89 C-187.12 85.25 -187.12 85.25 -186 83 C-185.34 83 -184.68 83 -184 83 C-183.67 81.68 -183.34 80.36 -183 79 C-182.34 79 -181.68 79 -181 79 C-180.66 78.01 -180.66 78.01 -180.31 77 C-178.61 73.11 -176.6 69.36 -174 66 C-173.34 66 -172.68 66 -172 66 C-171.77 65.44 -171.54 64.88 -171.3 64.31 C-169.65 61.39 -167.59 59.4 -165.19 57.06 C-164.34 56.23 -163.48 55.39 -162.61 54.54 C-161.75 53.7 -160.89 52.86 -160 52 C-159.17 51.17 -158.35 50.34 -157.5 49.48 C-133.98 26.08 -105.93 11.21 -74 3 C-72.95 2.72 -71.9 2.45 -70.81 2.16 C-47.96 -3.49 -23.17 -4.06 0 0 Z " fill="#2F7CBC" transform="translate(232,27)"/>
<path d="M0 0 C2.87 2.42 3.62 4.43 4.46 8.05 C4.83 9.55 4.83 9.55 5.19 11.09 C5.44 12.15 5.68 13.22 5.94 14.31 C6.46 16.5 6.98 18.69 7.51 20.88 C7.76 21.93 8.01 22.99 8.27 24.08 C9.17 27.7 10.22 31.25 11.31 34.81 C12.73 39.6 13.36 44.01 13.65 48.98 C14.4 55.44 16.31 61.73 18 68 C17.01 68.5 17.01 68.5 16 69 C13.94 68.31 13.94 68.31 12 67 C11.25 64.88 11.25 64.88 11 63 C10.34 63 9.68 63 9 63 C9 62.34 9 61.68 9 61 C8.01 60.67 7.02 60.34 6 60 C5.67 60.66 5.34 61.32 5 62 C3.68 62 2.36 62 1 62 C1 61.34 1 60.68 1 60 C-0.32 60 -1.64 60 -3 60 C-3.19 59.2 -3.19 59.2 -3.38 58.38 C-4.12 55.54 -5.05 52.78 -6 50 C-6.33 50.99 -6.66 51.98 -7 53 C-8.65 52.67 -10.3 52.34 -12 52 C-12.46 53.16 -12.92 54.33 -13.4 55.52 C-22.44 77.9 -34.2 97.54 -51 115 C-51.48 115.5 -51.95 116 -52.44 116.52 C-68.59 133.48 -87.66 146.61 -109 156.31 C-109.83 156.69 -110.66 157.07 -111.52 157.46 C-115.45 159.17 -118.62 160.52 -123 160 C-123 158.68 -123 157.36 -123 156 C-122.4 155.75 -121.8 155.5 -121.18 155.24 C-118.43 154.08 -115.69 152.91 -112.94 151.75 C-111.99 151.35 -111.05 150.96 -110.08 150.55 C-104.84 148.32 -99.88 145.95 -95 143 C-95.99 140.52 -95.99 140.52 -97 138 C-99.48 138.99 -99.48 138.99 -102 140 C-102 139.34 -102 138.68 -102 138 C-103.65 138 -105.3 138 -107 138 C-107.66 136.68 -108.32 135.36 -109 134 C-105.73 130.56 -102.51 127.85 -98.5 125.31 C-72.87 108.56 -47.44 84.56 -37 55 C-37.6 54.85 -38.19 54.71 -38.8 54.56 C-41.5 53.89 -44.19 53.23 -46.88 52.56 C-47.81 52.33 -48.75 52.1 -49.71 51.87 C-50.61 51.64 -51.51 51.42 -52.43 51.19 C-53.26 50.99 -54.08 50.78 -54.94 50.57 C-57 50 -57 50 -59 49 C-59 48.34 -59 47.68 -59 47 C-57.49 45.63 -55.91 44.33 -54.31 43.06 C-53.31 42.26 -52.3 41.46 -51.27 40.63 C-50.73 40.2 -50.2 39.77 -49.65 39.33 C-46.89 37.1 -44.2 34.8 -41.5 32.5 C-37.48 29.08 -33.42 25.7 -29.31 22.38 C-25.71 19.45 -22.24 16.44 -18.81 13.31 C-7.72 3.24 -7.72 3.24 -1 1 C-0.67 0.67 -0.34 0.34 0 0 Z M-15.69 21.31 C-16.83 22.51 -17.94 23.73 -19 25 C-16.4 28.14 -13.45 29.24 -9.69 30.69 C-8.58 31.12 -7.47 31.56 -6.32 32.01 C-3.02 32.99 -0.42 33.19 3 33 C2.89 31.37 2.76 29.75 2.62 28.12 C2.56 27.22 2.49 26.32 2.41 25.38 C2.2 22.82 2.2 22.82 0 21 C-6 18.16 -10.42 16.62 -15.69 21.31 Z " fill="#3568A8" transform="translate(387,223)"/>
<path d="M0 0 C15.85 12.54 26.64 32.9 35 51 C35.37 51.79 35.74 52.58 36.12 53.4 C37.25 55.87 38.38 58.34 39.5 60.81 C39.85 61.58 40.2 62.36 40.56 63.15 C43 68.64 43 68.64 43 72 C43.89 71.69 43.89 71.69 44.79 71.37 C47.46 70.44 50.14 69.5 52.81 68.56 C53.74 68.24 54.67 67.91 55.63 67.58 C56.52 67.26 57.41 66.95 58.33 66.63 C59.15 66.34 59.98 66.05 60.82 65.76 C62.54 65.16 64.27 64.58 66 64 C65.53 71.3 63.12 77.29 60.31 84 C59.39 86.25 58.47 88.5 57.55 90.76 C57.1 91.84 56.66 92.92 56.2 94.04 C54.75 97.63 53.39 101.24 52.06 104.88 C47.69 116.7 42.79 128.34 38 140 C34.46 140 34.14 139.53 31.67 137.18 C31.04 136.58 30.4 135.98 29.75 135.37 C29.09 134.73 28.43 134.09 27.75 133.44 C27.11 132.83 26.46 132.22 25.8 131.59 C22.01 127.99 18.29 124.31 14.62 120.58 C12.91 118.91 11.13 117.36 9.31 115.81 C5.14 112.22 1.3 108.33 -2.56 104.42 C-6 100.96 -9.54 97.7 -13.24 94.53 C-15.99 92.14 -18.52 89.66 -21 87 C-21 86.34 -21 85.68 -21 85 C-12.68 83.86 -4.37 82.75 4 82 C1.84 72.64 -2.47 64.4 -7 56 C-7.34 55.36 -7.69 54.73 -8.04 54.07 C-16.64 38.39 -28.16 25.33 -41 13 C-42.67 11.34 -44.34 9.67 -46 8 C-40.64 9.46 -37.68 13.09 -34 17 C-33.2 17.8 -32.39 18.61 -31.56 19.44 C-30.72 20.28 -29.87 21.13 -29 22 C-28.09 22.86 -28.09 22.86 -27.16 23.73 C-22.04 28.65 -17.64 33.88 -14 40 C-14 40.66 -14 41.32 -14 42 C-13.34 42 -12.68 42 -12 42 C-8 48.75 -8 48.75 -8 51 C-5.03 51.5 -5.03 51.5 -2 52 C-2 52.99 -2 53.98 -2 55 C-0.68 55 0.64 55 2 55 C2.47 54.48 2.95 53.97 3.44 53.44 C5 52 5 52 7.45 52.06 C10 53 10 53 11.36 55.5 C11.68 56.51 11.99 57.52 12.31 58.56 C12.64 59.57 12.96 60.59 13.3 61.63 C13.65 62.8 13.65 62.8 14 64 C12.68 63.67 11.36 63.34 10 63 C9.47 64.86 9.47 64.86 8.94 66.75 C8.74 67.45 8.54 68.14 8.34 68.86 C7.97 71.22 8.27 72.74 9 75 C8.34 75 7.68 75 7 75 C7.33 75.66 7.66 76.32 8 77 C9.65 75.68 11.3 74.36 13 73 C13 73.66 13 74.32 13 75 C13.66 75 14.32 75 15 75 C16.62 76.5 16.62 76.5 18 78 C18 76.02 18 74.04 18 72 C18.66 72.66 19.32 73.32 20 74 C22.07 74.64 22.07 74.64 24 75 C25 78.46 26 81.92 27 85.38 C27.29 86.36 27.57 87.34 27.87 88.36 C28.14 89.3 28.41 90.24 28.69 91.21 C28.94 92.08 29.19 92.95 29.45 93.85 C30 96 30 96 30 98 C30.66 98 31.32 98 32 98 C32.33 97.34 32.66 96.68 33 96 C33 96.99 33 97.98 33 99 C35 99.04 37 99.04 39 99 C39.33 98.67 39.66 98.34 40 98 C41.67 97.96 43.33 97.96 45 98 C45.33 98.66 45.66 99.32 46 100 C46.99 99.67 47.98 99.34 49 99 C49.99 98.67 50.98 98.34 52 98 C53.24 95.6 53.24 95.6 54.25 92.56 C54.67 91.4 55.09 90.25 55.53 89.05 C55.76 88.41 55.99 87.77 56.23 87.11 C57.69 83.11 59.26 79.15 60.81 75.19 C61.42 73.62 62.03 72.05 62.64 70.48 C63.09 69.33 63.54 68.18 64 67 C63.48 67.22 62.96 67.43 62.43 67.66 C60.06 68.64 57.69 69.6 55.31 70.56 C54.5 70.9 53.68 71.25 52.84 71.6 C49.46 72.95 46.71 73.98 43.05 74.07 C41 73 41 73 39.8 70.65 C39.5 69.57 39.19 68.49 38.88 67.38 C31.54 44.26 18.48 23.23 2.56 5.06 C0 2 0 2 0 0 Z " fill="#354792" transform="translate(351,72)"/>
<path d="M0 0 C0.66 0.33 1.32 0.66 2 1 C1.54 1.64 1.08 2.28 0.61 2.94 C-5.83 10.93 -5.83 10.93 -9.12 20.25 C-7.34 23.02 -4.99 23.8 -2 25 C-1.01 25 -0.02 25 1 25 C3.31 31.11 3.31 31.11 1.95 35.01 C1.34 36.04 0.74 37.07 0.12 38.12 C-7.04 51.27 -11.83 65.23 -15.38 79.75 C-15.61 80.72 -15.85 81.69 -16.1 82.68 C-19.8 98.72 -20.26 114.43 -20.06 130.81 C-20.03 133.65 -20.01 136.49 -19.99 139.33 C-19.98 141.08 -19.96 142.83 -19.94 144.58 C-19.93 145.36 -19.92 146.15 -19.92 146.96 C-19.91 147.65 -19.9 148.33 -19.89 149.04 C-20 151 -20 151 -20.57 153.19 C-20.78 154.09 -20.78 154.09 -21 155 C-20.67 155.33 -20.34 155.66 -20 156 C-19.77 157.85 -19.59 159.7 -19.44 161.56 C-19.35 162.57 -19.27 163.59 -19.18 164.63 C-19.12 165.41 -19.06 166.19 -19 167 C-19.66 166.67 -20.32 166.34 -21 166 C-21.63 163.94 -21.63 163.94 -22 162 C-22.33 162.99 -22.66 163.98 -23 165 C-23.66 165 -24.32 165 -25 165 C-25 165.66 -25 166.32 -25 167 C-29 167 -29 167 -32 165 C-31.34 164.67 -30.68 164.34 -30 164 C-30 160.7 -30 157.4 -30 154 C-31.65 154 -33.3 154 -35 154 C-34.67 151.69 -34.34 149.38 -34 147 C-34.66 146.67 -35.32 146.34 -36 146 C-37.96 141.44 -38.31 137.18 -38.3 132.28 C-38.31 131.54 -38.31 130.81 -38.32 130.05 C-38.33 127.68 -38.32 125.31 -38.31 122.94 C-38.31 122.13 -38.31 121.32 -38.31 120.48 C-38.27 107.76 -37.53 95.49 -35 83 C-34.86 82.23 -34.71 81.46 -34.56 80.67 C-31.53 64.59 -26.2 49.68 -19 35 C-19.66 34.67 -20.32 34.34 -21 34 C-14.71 22.08 -8.19 10.72 0 0 Z " fill="#3383C2" transform="translate(39,87)"/>
<path d="M0 0 C2.87 2.42 3.62 4.43 4.46 8.05 C4.83 9.55 4.83 9.55 5.19 11.09 C5.44 12.15 5.68 13.22 5.94 14.31 C6.46 16.5 6.98 18.69 7.51 20.88 C7.76 21.93 8.01 22.99 8.27 24.08 C9.17 27.7 10.22 31.25 11.31 34.81 C12.73 39.6 13.36 44.01 13.65 48.98 C14.4 55.44 16.31 61.73 18 68 C17.01 68.5 17.01 68.5 16 69 C13.94 68.31 13.94 68.31 12 67 C11.25 64.88 11.25 64.88 11 63 C10.34 63 9.68 63 9 63 C9 62.34 9 61.68 9 61 C8.01 60.67 7.02 60.34 6 60 C5.67 60.66 5.34 61.32 5 62 C3.68 62 2.36 62 1 62 C1 61.34 1 60.68 1 60 C-0.32 60 -1.64 60 -3 60 C-3.19 59.2 -3.19 59.2 -3.38 58.38 C-4.12 55.54 -5.05 52.78 -6 50 C-6.33 50.99 -6.66 51.98 -7 53 C-8.65 52.67 -10.3 52.34 -12 52 C-12.46 53.16 -12.92 54.33 -13.4 55.52 C-22.44 77.9 -34.2 97.54 -51 115 C-51.48 115.5 -51.95 116 -52.44 116.52 C-68.59 133.48 -87.66 146.61 -109 156.31 C-109.83 156.69 -110.66 157.07 -111.52 157.46 C-115.45 159.17 -118.62 160.52 -123 160 C-123 158.68 -123 157.36 -123 156 C-122.44 155.77 -121.88 155.55 -121.31 155.32 C-109.26 150.4 -97.84 145.23 -87 138 C-86.11 137.41 -86.11 137.41 -85.2 136.81 C-75.37 130.23 -66.75 122.75 -58.39 114.39 C-57 113 -55.59 111.62 -54.15 110.29 C-37.48 94.65 -23.65 70.76 -17 49 C-17.99 49 -18.98 49 -20 49 C-18.47 45.56 -16.4 42.88 -14 40 C-15.65 40.66 -17.3 41.32 -19 42 C-18.34 39.36 -17.68 36.72 -17 34 C-17.76 33.53 -17.76 33.53 -18.53 33.05 C-19.18 32.62 -19.83 32.19 -20.5 31.75 C-21.47 31.12 -21.47 31.12 -22.47 30.48 C-22.97 29.99 -23.48 29.5 -24 29 C-24 27.68 -24 26.36 -24 25 C-25.98 25.33 -27.96 25.66 -30 26 C-29.28 25.3 -28.57 24.59 -27.83 23.87 C-25.48 21.52 -23.26 19.08 -21.06 16.6 C-15.24 10.08 -9.51 3.84 -1 1 C-0.67 0.67 -0.34 0.34 0 0 Z M-15.69 21.31 C-16.83 22.51 -17.94 23.73 -19 25 C-16.4 28.14 -13.45 29.24 -9.69 30.69 C-8.58 31.12 -7.47 31.56 -6.32 32.01 C-3.02 32.99 -0.42 33.19 3 33 C2.89 31.37 2.76 29.75 2.62 28.12 C2.56 27.22 2.49 26.32 2.41 25.38 C2.2 22.82 2.2 22.82 0 21 C-6 18.16 -10.42 16.62 -15.69 21.31 Z " fill="#388DC8" transform="translate(387,223)"/>
<path d="M0 0 C1.06 0 2.13 0 3.22 0.01 C5.03 0.01 5.03 0.01 6.86 0.01 C8.17 0.01 9.48 0.02 10.82 0.02 C12.17 0.02 13.51 0.03 14.86 0.03 C18.4 0.03 21.94 0.04 25.48 0.05 C29.1 0.06 32.71 0.07 36.32 0.07 C43.42 0.08 50.51 0.1 57.6 0.12 C58.88 6.18 58.75 12.06 58.73 18.25 C58.73 19.95 58.73 19.95 58.74 21.68 C58.72 34.86 58.09 47.93 57.6 61.12 C37.47 61.12 17.34 61.12 -3.4 61.12 C-4.56 30.99 -4.56 30.99 -4.1 18.69 C-4.02 16.47 -3.95 14.25 -3.89 12.02 C-3.51 0.18 -3.51 0.18 0 0 Z M7.6 10.12 C5.94 13.45 6.48 17.18 6.5 20.85 C6.51 21.61 6.51 22.38 6.51 23.16 C6.51 26.02 6.53 28.88 6.54 31.75 C6.56 38.14 6.58 44.53 6.6 51.12 C20.46 51.12 34.32 51.12 48.6 51.12 C48.62 44.54 48.64 37.96 48.66 31.18 C48.67 29.1 48.68 27.02 48.69 24.88 C48.69 23.24 48.7 21.61 48.7 19.97 C48.7 19.11 48.71 18.25 48.72 17.37 C48.72 15.28 48.66 13.2 48.6 11.12 C47.39 9.68 47.39 9.68 43.82 10.01 C42.13 10.01 40.44 10.01 38.75 10.02 C37.87 10.02 36.98 10.03 36.07 10.03 C33.23 10.03 30.38 10.05 27.54 10.06 C25.62 10.06 23.69 10.07 21.77 10.07 C17.05 10.08 12.33 10.1 7.6 10.12 Z " fill="#24648E" transform="translate(97.39808654785156,105.87974548339844)"/>
<path d="M0 0 C20.13 0 40.26 0 61 0 C61 20.13 61 40.26 61 61 C40.87 61 20.74 61 0 61 C0 40.87 0 20.74 0 0 Z M10 10 C10 23.53 10 37.06 10 51 C23.86 51 37.72 51 52 51 C52 37.47 52 23.94 52 10 C38.14 10 24.28 10 10 10 Z " fill="#172A4F" transform="translate(94,260)"/>
<path d="M0 0 C1.06 0 2.13 0 3.22 0.01 C5.05 0.01 5.05 0.01 6.91 0.01 C8.2 0.01 9.5 0.02 10.82 0.02 C12 0.02 13.18 0.02 14.4 0.03 C18.82 0.03 23.24 0.04 27.66 0.06 C37.54 0.08 47.42 0.1 57.6 0.12 C57.6 20.25 57.6 40.38 57.6 61.12 C37.47 61.12 17.34 61.12 -3.4 61.12 C-3.42 51.24 -3.44 41.36 -3.46 31.18 C-3.47 26.5 -3.47 26.5 -3.49 21.72 C-3.49 19.26 -3.49 16.8 -3.5 14.34 C-3.5 13.05 -3.51 11.76 -3.51 10.43 C-3.51 8.61 -3.51 8.61 -3.51 6.74 C-3.51 5.68 -3.52 4.61 -3.52 3.52 C-3.36 0.28 -3.23 0.16 0 0 Z M6.6 10.12 C6.6 23.65 6.6 37.18 6.6 51.12 C20.46 51.12 34.32 51.12 48.6 51.12 C48.63 41.81 48.63 41.81 48.66 32.31 C48.67 30.35 48.68 28.39 48.69 26.38 C48.69 24.83 48.7 23.28 48.7 21.73 C48.7 20.92 48.71 20.12 48.72 19.29 C48.72 15.97 48.66 13.29 47.6 10.12 C34.07 10.12 20.54 10.12 6.6 10.12 Z " fill="#1C3D65" transform="translate(251.39808654785156,105.87974548339844)"/>
<path d="M0 0 C3.43 1.47 5.71 3.03 8 6 C8.63 8.91 8.7 11.78 8.75 14.75 C8.78 15.54 8.81 16.34 8.84 17.15 C8.91 19.1 8.96 21.05 9 23 C7.35 23.66 5.7 24.32 4 25 C4.21 25.78 4.41 26.57 4.62 27.38 C4.75 28.24 4.87 29.11 5 30 C4.34 30.66 3.68 31.32 3 32 C3.66 32.66 4.32 33.32 5 34 C4.01 34.99 3.02 35.98 2 37 C3.65 37 5.3 37 7 37 C7 37.33 7 37.66 7 38 C-7.85 38 -22.7 38 -38 38 C-38 33.38 -38 28.76 -38 24 C-35.69 24 -33.38 24 -31 24 C-30.34 22.35 -29.68 20.7 -29 19 C-27.68 19.99 -26.36 20.98 -25 22 C-25.01 20.86 -25.02 19.71 -25.04 18.54 C-25.04 17.04 -25.05 15.55 -25.06 14.06 C-25.07 13.31 -25.08 12.55 -25.09 11.78 C-25.1 9.85 -25.05 7.92 -25 6 C-23.29 4.29 -21 4.77 -18.65 4.68 C-17.57 4.64 -16.49 4.6 -15.38 4.56 C-14.24 4.52 -13.11 4.48 -11.94 4.44 C-10.23 4.37 -10.23 4.37 -8.48 4.31 C-5.66 4.2 -2.83 4.1 0 4 C0 3.01 0 2.02 0 1 C0 0.67 0 0.34 0 0 Z " fill="#1D2960" transform="translate(297,281)"/>
<path d="M0 0 C7.59 0 15.18 0 23 0 C23 4.95 23 9.9 23 15 C20.69 15.66 18.38 16.32 16 17 C15.01 19.96 14.84 21.92 15 25 C15.33 25.66 15.66 26.32 16 27 C18.64 27 21.28 27 24 27 C24.33 24.03 24.66 21.06 25 18 C27.48 17.97 29.96 17.95 32.44 17.94 C33.14 17.93 33.85 17.92 34.58 17.91 C36.39 17.9 38.19 17.95 40 18 C41.62 19.62 41.13 21.42 41.13 23.66 C41.13 25.07 41.13 25.07 41.14 26.5 C41.13 27.49 41.13 28.48 41.12 29.5 C41.13 30.98 41.13 30.98 41.14 32.5 C41.14 33.44 41.13 34.38 41.13 35.34 C41.13 36.21 41.13 37.08 41.13 37.97 C41 40 41 40 40 41 C38 41.04 36 41.04 34 41 C34 38.69 34 36.38 34 34 C27.73 34.33 21.46 34.66 15 35 C15.02 37.29 15.04 39.58 15.06 41.94 C15.08 44.29 15.07 46.65 15 49 C13.42 50.58 11.62 50.35 9.44 50.56 C8.61 50.65 7.78 50.73 6.93 50.82 C6.3 50.88 5.66 50.94 5 51 C5 52.98 5 54.96 5 57 C3.35 57 1.7 57 0 57 C0 55.02 0 53.04 0 51 C-2.97 50.67 -5.94 50.34 -9 50 C-9 48.02 -9 46.04 -9 44 C-3.72 44 1.56 44 7 44 C7.31 42.11 7.31 42.11 7.62 40.19 C7.74 39.48 7.86 38.77 7.98 38.04 C8.2 35.68 8.2 35.68 6 33 C4.02 33 2.04 33 0 33 C-0.33 28.05 -0.66 23.1 -1 18 C2.47 17.5 2.47 17.5 6 17 C7.42 15.82 7.42 15.82 7.06 12.44 C7.03 10.74 7.03 10.74 7 9 C4.69 8.34 2.38 7.68 0 7 C-1.12 2.25 -1.12 2.25 0 0 Z " fill="#215989" transform="translate(199,107)"/>
<path d="M0 0 C4.62 0 9.24 0 14 0 C14.66 2.31 15.32 4.62 16 7 C18.64 7.33 21.28 7.66 24 8 C24.11 13.46 23.92 18.62 23 24 C25.97 24.33 28.94 24.66 32 25 C32 30.33 32 35.67 32 41 C32.19 39.05 32.19 39.05 32.38 37.06 C32.59 34.85 32.59 34.85 33 33 C35.96 31.52 38.74 31.94 42 32 C42.05 33.46 42.09 34.92 42.12 36.38 C42.15 37.19 42.17 38 42.2 38.84 C42 41 42 41 40 43 C39.72 45.33 39.72 45.33 39.8 48.01 C39.81 49.49 39.81 49.49 39.82 51 C39.84 52.03 39.86 53.06 39.88 54.12 C39.88 55.17 39.89 56.21 39.9 57.28 C39.93 59.85 39.96 62.43 40 65 C38.35 64.67 36.7 64.34 35 64 C34.67 59.71 34.34 55.42 34 51 C31.03 50.34 28.06 49.68 25 49 C25 47.97 25 47.97 24.99 46.92 C24.87 44.16 24.69 41.67 24 39 C23.01 38.53 22.02 38.05 21 37.56 C20.01 37.05 19.02 36.53 18 36 C17.34 33.1 17.19 30.37 17.11 27.4 C17.27 25.05 17.27 25.05 16 24 C14.22 23.84 12.44 23.75 10.65 23.68 C9.03 23.62 9.03 23.62 7.38 23.56 C6.24 23.52 5.11 23.48 3.94 23.44 C2.8 23.39 1.66 23.35 0.48 23.31 C-2.34 23.2 -5.17 23.1 -8 23 C-8.38 21.34 -8.71 19.68 -9 18 C-7 16 -3.18 16.59 -0.44 16.44 C0.63 16.37 0.63 16.37 1.72 16.31 C3.48 16.2 5.24 16.1 7 16 C7.66 12.7 8.32 9.4 9 6 C7.35 6.33 5.7 6.66 4 7 C1.69 6.56 1.69 6.56 0 6 C0 4.02 0 2.04 0 0 Z " fill="#1A3E6D" transform="translate(147,228)"/>
<path d="M0 0 C0.66 0 1.32 0 2 0 C2.12 0.99 2.25 1.97 2.38 2.99 C3.75 12.86 6.05 22.32 8.88 31.88 C9.2 32.99 9.53 34.11 9.87 35.26 C17.06 58.98 29.64 82.33 46 101 C46.98 102.17 47.97 103.35 48.95 104.53 C54.26 110.89 59.55 116.77 66 122 C67.23 123.1 68.46 124.21 69.69 125.31 C81.02 135.14 92.87 142.81 106 150 C107.04 150.58 108.08 151.15 109.14 151.75 C148.69 172.62 195.32 177.71 239 170 C239.77 169.87 240.53 169.74 241.32 169.61 C276.8 163.47 310.3 145.35 336.64 121.11 C338.29 119.64 339.99 118.22 341.73 116.86 C344.07 115.2 344.07 115.2 345 113 C345.66 113 346.32 113 347 113 C347.37 112.15 347.37 112.15 347.74 111.29 C349.22 108.59 351.01 106.67 353.12 104.44 C361.63 95.13 368.3 84.63 375 74 C375.66 74.33 376.32 74.66 377 75 C368.67 90.72 357.31 104.26 345 117 C344.33 117.72 343.66 118.45 342.96 119.19 C310.25 153.57 259.63 174.65 212.53 176.11 C197.63 176.36 182.74 176.49 168 174 C167.27 173.88 166.55 173.76 165.8 173.64 C117.53 165.47 72.14 138.57 42 100 C41.28 99.1 40.56 98.2 39.82 97.27 C20.32 72.16 -1.79 32.95 0 0 Z " fill="#232D5B" transform="translate(1,236)"/>
<path d="M0 0 C13.2 0 26.4 0 40 0 C40 1.98 40 3.96 40 6 C37.69 6 35.38 6 33 6 C33 6.66 33 7.32 33 8 C32.34 8 31.68 8 31 8 C31 12.95 31 17.9 31 23 C28.69 23.33 26.38 23.66 24 24 C24 26.97 24 29.94 24 33 C26.64 33.66 29.28 34.32 32 35 C32.5 38.96 32.5 38.96 33 43 C38.28 43 43.56 43 49 43 C49 44.98 49 46.96 49 49 C41.41 49 33.82 49 26 49 C25.67 46.03 25.34 43.06 25 40 C24.16 40.02 23.31 40.05 22.45 40.07 C20.8 40.1 20.8 40.1 19.12 40.12 C18.03 40.15 16.94 40.17 15.82 40.2 C13 40 13 40 11 38 C11 37.01 11 36.02 11 35 C11.64 34.88 12.28 34.75 12.94 34.62 C13.62 34.42 14.3 34.21 15 34 C16.59 30.81 16.1 27.37 16.06 23.88 C16.06 23.12 16.05 22.37 16.05 21.59 C16.04 19.73 16.02 17.86 16 16 C13.69 15.67 11.38 15.34 9 15 C8.67 12.69 8.34 10.38 8 8 C5.36 7.67 2.72 7.34 0 7 C0 4.69 0 2.38 0 0 Z " fill="#205C8E" transform="translate(96,176)"/>
<path d="M0 0 C1.6 2.97 2.62 5.85 3.51 9.1 C3.9 10.55 3.9 10.55 4.31 12.03 C4.58 13.03 4.85 14.03 5.12 15.06 C5.4 16.07 5.68 17.07 5.96 18.11 C8 25.62 8 25.62 8 29 C3.24 28.43 -0.45 27.03 -4.75 24.94 C-8.71 22.79 -8.71 22.79 -13 22 C-13.81 23.68 -13.81 23.68 -14.64 25.39 C-15.37 26.87 -16.09 28.34 -16.81 29.81 C-17.17 30.55 -17.53 31.29 -17.89 32.05 C-18.24 32.76 -18.6 33.47 -18.96 34.21 C-19.28 34.86 -19.6 35.52 -19.93 36.19 C-21.09 38.14 -22.26 39.54 -24 41 C-24.66 41 -25.32 41 -26 41 C-26.33 42.65 -26.66 44.3 -27 46 C-28.18 46.09 -28.18 46.09 -29.38 46.19 C-30.24 46.46 -31.11 46.72 -32 47 C-33.32 49.4 -33.32 49.4 -34 52 C-34.33 52.66 -34.66 53.32 -35 54 C-36.32 53.67 -37.64 53.34 -39 53 C-38.67 50.36 -38.34 47.72 -38 45 C-38.66 45 -39.32 45 -40 45 C-40 45.66 -40 46.32 -40 47 C-41.32 46.67 -42.64 46.34 -44 46 C-44 46.61 -44.01 47.23 -44.01 47.86 C-44.13 50.37 -44.32 52.58 -45 55 C-48.06 57.06 -48.06 57.06 -51 58 C-51.66 57.34 -52.32 56.68 -53 56 C-52.38 55.18 -51.77 54.35 -51.13 53.5 C-41.75 40.79 -34.37 27.74 -28.56 13.03 C-28.25 12.26 -27.95 11.49 -27.63 10.69 C-27.36 10 -27.09 9.31 -26.82 8.6 C-26 7 -26 7 -24 6 C-21.88 6.94 -21.88 6.94 -20 8 C-19.67 6.68 -19.34 5.36 -19 4 C-17.44 5.25 -17.44 5.25 -16 7 C-16.31 9.19 -16.31 9.19 -17 11 C-16.01 11.33 -15.02 11.66 -14 12 C-14.66 12 -15.32 12 -16 12 C-16 12.99 -16 13.98 -16 15 C-14.68 15 -13.36 15 -12 15 C-12 15.66 -12 16.32 -12 17 C-10.68 17 -9.36 17 -8 17 C-7.5 15.51 -7.5 15.51 -7 14 C-6.01 14.66 -5.02 15.32 -4 16 C-4 16.66 -4 17.32 -4 18 C-3.34 18 -2.68 18 -2 18 C-2 18.99 -2 19.98 -2 21 C-0.02 21.66 1.96 22.32 4 23 C3.57 21.39 3.57 21.39 3.12 19.75 C2.75 18.31 2.37 16.87 2 15.44 C1.81 14.73 1.62 14.03 1.42 13.3 C0.24 8.73 -0.2 4.72 0 0 Z " fill="#3573B1" transform="translate(400,268)"/>
<path d="M0 0 C0.21 0.74 0.41 1.49 0.62 2.25 C2.4 5.79 4.63 7.02 8 9 C7.34 11.31 6.68 13.62 6 16 C7.32 15.67 8.64 15.34 10 15 C9.02 17.19 8.29 18.76 6.44 20.31 C4.66 22.08 4.66 22.08 4.62 25.5 C4.42 26.65 4.21 27.81 4 29 C3.15 29.47 2.31 29.95 1.44 30.44 C0.23 31.21 0.23 31.21 -1 32 C-1.33 34.09 -1.25 35.96 -1.08 38.06 C-1 40 -1 40 -2 43 C-2.66 43 -3.32 43 -4 43 C-4.06 43.78 -4.12 44.57 -4.19 45.38 C-5 48 -5 48 -7.25 49.5 C-10 50 -10 50 -12.81 48.94 C-15 47 -15 47 -15.44 44.62 C-14.97 41.82 -14.08 39.63 -13 37 C-12.26 34.02 -11.62 31.01 -11 28 C-11.66 28 -12.32 28 -13 28 C-13.41 27.53 -13.82 27.06 -14.24 26.57 C-16.72 24.36 -18.92 24.27 -22.19 23.81 C-23.82 23.57 -23.82 23.57 -25.48 23.33 C-26.73 23.17 -26.73 23.17 -28 23 C-25 15.14 -19.88 10.72 -13 6 C-12.34 6 -11.68 6 -11 6 C-11 5.34 -11 4.68 -11 4 C-10.01 4 -9.02 4 -8 4 C-7.67 3.01 -7.34 2.02 -7 1 C-2.25 0 -2.25 0 0 0 Z " fill="#3289C8" transform="translate(363,248)"/>
<path d="M0 0 C0.5 6.93 0.5 6.93 1 14 C-0.32 13.67 -1.64 13.34 -3 13 C-3.46 14.16 -3.92 15.33 -4.4 16.52 C-13.44 38.9 -25.2 58.54 -42 76 C-42.48 76.5 -42.95 77 -43.44 77.52 C-59.59 94.48 -78.66 107.61 -100 117.31 C-100.83 117.69 -101.66 118.07 -102.52 118.46 C-106.45 120.17 -109.62 121.52 -114 121 C-114 119.68 -114 118.36 -114 117 C-113.44 116.77 -112.88 116.55 -112.31 116.32 C-100.26 111.4 -88.84 106.23 -78 99 C-77.11 98.41 -77.11 98.41 -76.2 97.81 C-66.37 91.23 -57.75 83.75 -49.39 75.39 C-48 74 -46.59 72.62 -45.15 71.29 C-28.48 55.65 -14.65 31.76 -8 10 C-8.99 10 -9.98 10 -11 10 C-9.63 6.85 -8.12 4.95 -5.5 2.75 C-4.89 2.23 -4.28 1.71 -3.66 1.17 C-2 0 -2 0 0 0 Z " fill="#A7E1F9" transform="translate(378,262)"/>
<path d="M0 0 C15.85 12.54 26.64 32.9 35 51 C35.37 51.79 35.74 52.58 36.12 53.4 C37.25 55.87 38.38 58.34 39.5 60.81 C40.03 61.97 40.03 61.97 40.56 63.15 C43 68.64 43 68.64 43 72 C43.89 71.69 43.89 71.69 44.79 71.37 C47.46 70.44 50.14 69.5 52.81 68.56 C53.74 68.24 54.67 67.91 55.63 67.58 C56.52 67.26 57.41 66.95 58.33 66.63 C59.15 66.34 59.98 66.05 60.82 65.76 C62.54 65.16 64.27 64.58 66 64 C65.53 71.3 63.12 77.29 60.31 84 C59.39 86.25 58.47 88.5 57.55 90.76 C57.1 91.84 56.66 92.92 56.2 94.04 C54.75 97.63 53.39 101.24 52.06 104.88 C47.69 116.7 42.79 128.34 38 140 C34.46 140 34.14 139.53 31.67 137.18 C31.04 136.58 30.4 135.98 29.75 135.37 C29.09 134.73 28.43 134.09 27.75 133.44 C27.11 132.83 26.46 132.22 25.8 131.59 C22.01 127.99 18.29 124.31 14.62 120.58 C12.91 118.91 11.13 117.36 9.31 115.81 C5.14 112.22 1.3 108.33 -2.56 104.42 C-6 100.96 -9.54 97.7 -13.24 94.53 C-15.99 92.14 -18.52 89.66 -21 87 C-21 86.34 -21 85.68 -21 85 C-12.68 83.86 -4.37 82.75 4 82 C3.67 79.36 3.34 76.72 3 74 C5 75 5 75 6.19 77.19 C7 80 7 80 6 86 C-1.92 86 -9.84 86 -18 86 C-16.35 87.65 -14.7 89.3 -13 91 C-11.96 92.08 -10.92 93.17 -9.88 94.26 C-8.77 95.4 -7.67 96.55 -6.56 97.69 C-5.74 98.56 -5.74 98.56 -4.9 99.45 C-1.53 102.9 1.11 105.04 6 106 C7.49 105.5 7.49 105.5 9 105 C11.74 105.46 14.32 106.25 17 107 C17.1 110.49 16.78 113.59 16 117 C16.66 117 17.32 117 18 117 C18 117.66 18 118.32 18 119 C18.66 119 19.32 119 20 119 C20 119.99 20 120.98 20 122 C20.87 121.69 20.87 121.69 21.75 121.38 C24.52 120.91 25.65 121.57 28 123 C29.32 121.68 30.64 120.36 32 119 C32.99 119.5 32.99 119.5 34 120 C34 120.99 34 121.98 34 123 C35.11 122.98 36.23 122.96 37.38 122.94 C41 123 41 123 43 124 C43.12 123.12 43.24 122.25 43.37 121.34 C43.97 118.15 44.84 115.5 46.07 112.51 C46.49 111.48 46.91 110.45 47.34 109.39 C48.01 107.78 48.01 107.78 48.69 106.12 C49.6 103.88 50.51 101.63 51.43 99.38 C51.87 98.29 52.31 97.2 52.77 96.07 C54.37 92.09 55.89 88.09 57.38 84.06 C59.49 78.34 61.7 72.66 64 67 C63.48 67.22 62.96 67.43 62.43 67.66 C60.06 68.64 57.69 69.6 55.31 70.56 C54.5 70.9 53.68 71.25 52.84 71.6 C49.46 72.95 46.71 73.98 43.05 74.07 C41 73 41 73 39.8 70.65 C39.5 69.57 39.19 68.49 38.88 67.38 C31.54 44.26 18.48 23.23 2.56 5.06 C0 2 0 2 0 0 Z " fill="#2E3E78" transform="translate(351,72)"/>
<path d="M0 0 C1.59 0.04 1.59 0.04 3.21 0.08 C17.04 0.79 17.04 0.79 18.5 2.25 C18.75 6.22 18.69 10.21 18.69 14.19 C18.7 15.31 18.71 16.43 18.72 17.59 C18.73 19.2 18.73 19.2 18.73 20.84 C18.73 21.83 18.74 22.82 18.74 23.84 C18.5 26.25 18.5 26.25 16.5 28.25 C12.87 28.7 9.21 28.57 5.56 28.56 C4.55 28.58 3.53 28.59 2.49 28.61 C1.03 28.61 1.03 28.61 -0.46 28.61 C-1.8 28.62 -1.8 28.62 -3.17 28.62 C-5.5 28.25 -5.5 28.25 -7.29 27.04 C-8.89 24.67 -8.89 23.1 -8.9 20.25 C-8.9 19.28 -8.91 18.31 -8.91 17.31 C-8.9 16.3 -8.89 15.29 -8.88 14.25 C-8.89 13.24 -8.9 12.23 -8.91 11.19 C-8.91 10.22 -8.9 9.25 -8.9 8.25 C-8.9 7.36 -8.89 6.48 -8.89 5.56 C-8.01 0.3 -4.78 -0.13 0 0 Z " fill="#4F7FB2" transform="translate(196.5,190.75)"/>
<path d="M0 0 C8.91 0 17.82 0 27 0 C27 8.91 27 17.82 27 27 C18.09 27 9.18 27 0 27 C0 18.09 0 9.18 0 0 Z " fill="#1C3B6D" transform="translate(111,277)"/>
<path d="M0 0 C1.12 -0 2.24 -0 3.39 -0 C4.57 -0 5.75 0 6.97 0.01 C8.74 0 8.74 0 10.54 -0 C12.22 -0 12.22 -0 13.94 0 C14.97 0 16.01 0 17.08 0 C19.47 0.13 19.47 0.13 20.47 1.13 C20.56 3.06 20.58 4.99 20.57 6.92 C20.56 8.09 20.56 9.26 20.56 10.46 C20.55 11.69 20.54 12.93 20.53 14.2 C20.53 15.43 20.52 16.67 20.52 17.94 C20.51 21 20.49 24.07 20.47 27.13 C16.16 27.16 11.84 27.18 7.53 27.2 C6.3 27.2 5.07 27.21 3.8 27.22 C2.63 27.22 1.46 27.23 0.25 27.23 C-1.37 27.24 -1.37 27.24 -3.03 27.25 C-5.53 27.13 -5.53 27.13 -6.53 26.13 C-6.63 24.29 -6.66 22.45 -6.66 20.6 C-6.67 19.48 -6.67 18.36 -6.67 17.21 C-6.66 16.03 -6.66 14.85 -6.66 13.63 C-6.66 12.45 -6.66 11.27 -6.67 10.06 C-6.67 8.94 -6.67 7.82 -6.66 6.66 C-6.66 5.63 -6.66 4.59 -6.66 3.53 C-6.42 -0.99 -3.95 0 0 0 Z " fill="#2677AC" transform="translate(117.53125,122.8671875)"/>
<path d="M0 0 C8.58 0 17.16 0 26 0 C26 8.91 26 17.82 26 27 C17.42 27 8.84 27 0 27 C-1.27 24.47 -1.13 22.68 -1.13 19.84 C-1.13 18.82 -1.14 17.8 -1.14 16.75 C-1.13 15.67 -1.13 14.6 -1.12 13.5 C-1.13 12.43 -1.13 11.36 -1.14 10.25 C-1.13 8.72 -1.13 8.72 -1.13 7.16 C-1.13 6.22 -1.13 5.28 -1.13 4.31 C-1 2 -1 2 0 0 Z " fill="#1E4879" transform="translate(266,123)"/>
<path d="M0 0 C18.81 0 37.62 0 57 0 C57 10.56 57 21.12 57 32 C55.68 32.66 54.36 33.32 53 34 C52 33 52 33 51.94 30.42 C51.98 28.27 52.02 26.13 52.06 23.98 C52.01 21.41 51.66 19.45 51 17 C51.19 16.38 51.37 15.76 51.56 15.12 C52.33 12.31 52.33 12.31 50 7 C35.48 7 20.96 7 6 7 C6 18.55 6 30.1 6 42 C5.67 41.34 5.34 40.68 5 40 C3.02 40.5 3.02 40.5 1 41 C0.67 42.32 0.34 43.64 0 45 C0 30.15 0 15.3 0 0 Z " fill="#1C3D6B" transform="translate(96,262)"/>
<path d="M0 0 C6.8 -0.05 13.6 -0.09 20.4 -0.11 C22.71 -0.12 25.03 -0.13 27.34 -0.15 C30.66 -0.18 33.98 -0.19 37.3 -0.2 C38.34 -0.21 39.38 -0.22 40.46 -0.23 C41.42 -0.23 42.38 -0.23 43.37 -0.23 C44.64 -0.23 44.64 -0.23 45.94 -0.24 C48 0 48 0 50 2 C50 3.33 50 4.67 50 6 C48.77 6.03 47.55 6.05 46.28 6.08 C41.74 6.17 37.19 6.27 32.65 6.37 C30.68 6.42 28.71 6.46 26.74 6.5 C23.92 6.56 21.09 6.62 18.26 6.68 C17.38 6.7 16.5 6.72 15.59 6.73 C14.36 6.76 14.36 6.76 13.1 6.79 C12.38 6.81 11.66 6.83 10.92 6.84 C8.78 6.94 8.78 6.94 6 8 C6 21.53 6 35.06 6 49 C6.66 49 7.32 49 8 49 C8 49.99 8 50.98 8 52 C9.65 52.33 11.3 52.66 13 53 C13 53.33 13 53.66 13 54 C9.04 54 5.08 54 1 54 C0.88 52.57 0.76 51.14 0.63 49.66 C0.46 47.79 0.29 45.93 0.12 44.06 C0.05 43.12 -0.03 42.17 -0.11 41.2 C-0.2 40.3 -0.28 39.4 -0.37 38.47 C-0.44 37.64 -0.51 36.81 -0.59 35.95 C-0.72 35.31 -0.86 34.66 -1 34 C-1.66 33.67 -2.32 33.34 -3 33 C-2.01 33 -1.02 33 0 33 C0 22.11 0 11.22 0 0 Z " fill="#277FB5" transform="translate(96,108)"/>
<path d="M0 0 C3.43 1.47 5.71 3.03 8 6 C8.63 8.91 8.7 11.78 8.75 14.75 C8.78 15.54 8.81 16.34 8.84 17.15 C8.91 19.1 8.96 21.05 9 23 C7.35 23.66 5.7 24.32 4 25 C4.19 25.8 4.37 26.61 4.56 27.44 C4.71 28.28 4.85 29.13 5 30 C4 31 4 31 1.32 31.11 C0.15 31.11 -1.02 31.1 -2.22 31.1 C-3.48 31.09 -4.74 31.09 -6.04 31.09 C-7.38 31.08 -8.72 31.07 -10.06 31.06 C-11.41 31.06 -12.75 31.05 -14.1 31.05 C-17.4 31.04 -20.7 31.02 -24 31 C-24.62 29.19 -24.62 29.19 -25 27 C-23.6 24.74 -22.23 22.8 -20.56 20.75 C-20.13 20.2 -19.69 19.64 -19.25 19.07 C-18.18 17.7 -17.09 16.35 -16 15 C-13.03 16.3 -11.31 17.54 -9.38 20.12 C-8.59 21.07 -7.81 22.02 -7 23 C-6.34 23 -5.68 23 -5 23 C-3.36 20.54 -3.36 20.54 -2 18 C-2.64 17.59 -3.28 17.18 -3.94 16.75 C-6.21 14.82 -6.6 13.89 -7 11 C-3.83 9.24 -1.76 8.75 2 8 C-5.92 8 -13.84 8 -22 8 C-22 11.96 -22 15.92 -22 20 C-22.66 20.33 -23.32 20.66 -24 21 C-24 15.72 -24 10.44 -24 5 C-16.08 4.67 -8.16 4.34 0 4 C0 3.01 0 2.02 0 1 C0 0.67 0 0.34 0 0 Z " fill="#476097" transform="translate(297,281)"/>
<path d="M0 0 C0.66 0 1.32 0 2 0 C2.12 0.78 2.25 1.57 2.38 2.38 C2.79 5.14 2.79 5.14 5 7 C5.41 9.16 5.41 9.16 5.62 11.62 C5.7 12.44 5.77 13.26 5.85 14.1 C5.93 15.04 5.93 15.04 6 16 C6.99 16 7.98 16 9 16 C9 15.34 9 14.68 9 14 C10.65 14 12.3 14 14 14 C14.33 19.94 14.66 25.88 15 32 C10 33 10 33 8 32 C7.59 29.28 7.59 29.28 7.38 25.94 C7.3 24.83 7.23 23.73 7.15 22.59 C7.1 21.74 7.05 20.88 7 20 C4.03 20 1.06 20 -2 20 C-2.33 22.64 -2.66 25.28 -3 28 C-4.98 28 -6.96 28 -9 28 C-9.33 25.36 -9.66 22.72 -10 20 C-12.31 19.67 -14.62 19.34 -17 19 C-17 17.35 -17 15.7 -17 14 C-15.02 14 -13.04 14 -11 14 C-10.34 11.03 -9.68 8.06 -9 5 C-4.54 4.5 -4.54 4.5 0 4 C0 2.68 0 1.36 0 0 Z " fill="#1E4272" transform="translate(242,180)"/>
<path d="M0 0 C1.19 0.06 2.39 0.11 3.62 0.17 C7.09 0.37 10.54 0.66 14 1 C15 1.1 16 1.2 17.02 1.3 C42.49 4.54 66.33 15.26 87.62 29.19 C88.43 29.71 89.24 30.23 90.07 30.77 C90.82 31.28 91.58 31.78 92.35 32.29 C93.03 32.74 93.71 33.19 94.41 33.65 C96 35 96 35 97 38 C93.98 36.59 91.43 34.92 88.75 32.94 C72.6 21.58 54.14 12.91 35 8 C33.94 7.73 32.88 7.45 31.79 7.17 C-11.71 -2.76 -55.98 5.31 -94 28 C-101.85 32.99 -109.21 38.63 -116 45 C-116.66 44.67 -117.32 44.34 -118 44 C-108.98 34.86 -99.14 28.32 -88 22 C-87.34 21.62 -86.67 21.23 -85.99 20.84 C-76.67 15.5 -67.16 11.43 -57 8 C-55.95 7.63 -54.91 7.26 -53.83 6.88 C-36.81 1.42 -17.83 -1.02 0 0 Z " fill="#2D5C7F" transform="translate(208,42)"/>
<path d="M0 0 C1.32 0.33 2.64 0.66 4 1 C4.06 4.96 4.09 8.92 4.12 12.88 C4.14 14 4.16 15.13 4.18 16.29 C4.18 17.37 4.19 18.45 4.2 19.55 C4.21 20.55 4.22 21.54 4.23 22.57 C4 25 4 25 2 27 C-1.63 27.45 -5.29 27.32 -8.94 27.31 C-9.95 27.33 -10.97 27.34 -12.01 27.36 C-13.47 27.36 -13.47 27.36 -14.96 27.36 C-16.3 27.37 -16.3 27.37 -17.67 27.37 C-20.45 26.93 -21.33 26.22 -23 24 C-23.39 21.27 -23.14 18.77 -23 16 C-22.67 16 -22.34 16 -22 16 C-21.88 16.97 -21.75 17.94 -21.62 18.94 C-21.42 19.95 -21.21 20.96 -21 22 C-20.34 22.33 -19.68 22.66 -19 23 C-19 22.34 -19 21.68 -19 21 C-17.02 20.67 -15.04 20.34 -13 20 C-13 19.34 -13 18.68 -13 18 C-11.02 17.34 -9.04 16.68 -7 16 C-7 15.34 -7 14.68 -7 14 C-6.34 14 -5.68 14 -5 14 C-4.75 13.44 -4.5 12.89 -4.25 12.31 C-3 10 -3 10 -0.94 7.5 C0.87 5.17 1.58 3.86 2 1 C1.34 0.67 0.68 0.34 0 0 Z " fill="#4563A2" transform="translate(211,192)"/>
<path d="M0 0 C0.99 0.5 0.99 0.5 2 1 C-8.68 8.01 -20.43 13.65 -32.96 16.3 C-35.57 16.9 -38.03 17.65 -40.58 18.47 C-46.42 20.25 -52.26 21.01 -58.31 21.69 C-59.98 21.88 -59.98 21.88 -61.68 22.07 C-77.05 23.74 -93.91 23.98 -109 20 C-110.23 19.75 -111.46 19.5 -112.73 19.24 C-128.27 16.05 -143.55 11.7 -157 3 C-157.33 2.34 -157.66 1.68 -158 1 C-154.58 2.06 -151.3 3.27 -148.03 4.73 C-118.04 18.15 -86.52 22.82 -54 18 C-52.72 17.82 -51.43 17.63 -50.11 17.45 C-34.39 14.87 -19.34 9.62 -5.15 2.4 C-3.46 1.55 -1.73 0.77 0 0 Z " fill="#273863" transform="translate(281,353)"/>
<path d="M0 0 C-12.84 13.7 -30.04 23.61 -47 31.31 C-48.24 31.88 -48.24 31.88 -49.52 32.46 C-53.45 34.17 -56.62 35.52 -61 35 C-61 33.68 -61 32.36 -61 31 C-60.16 30.66 -60.16 30.66 -59.31 30.32 C-41.79 23.17 -22.63 14.63 -9 1 C-5.97 -0.04 -3.18 -0.09 0 0 Z " fill="#8FB7F0" transform="translate(325,348)"/>
<path d="M0 0 C0.66 0 1.32 0 2 0 C2.03 1.04 2.05 2.09 2.08 3.16 C2.98 29.4 9.38 53.97 22 77 C22.64 78.21 23.29 79.43 23.93 80.64 C31.13 93.95 40.56 105.13 51 116 C51.53 116.56 52.07 117.12 52.62 117.7 C56.68 121.87 60.95 125.48 65.62 128.94 C66.31 129.45 67 129.96 67.71 130.49 C73.91 135.05 80.34 139.13 87 143 C84 144 84 144 81.94 143.1 C71.33 136.51 61.77 129.04 52.69 120.48 C50.1 118.01 50.1 118.01 47.48 116.09 C44.41 113.51 42.16 110.62 39.75 107.44 C38.78 106.18 37.82 104.92 36.85 103.66 C36.13 102.73 36.13 102.73 35.4 101.78 C33.4 99.23 31.29 96.78 29.19 94.31 C24.99 89.19 21.9 83.94 19 78 C18.69 77.39 18.38 76.78 18.07 76.15 C7.48 55.1 -0.33 31.78 -0.06 8 C-0.06 7.23 -0.05 6.45 -0.05 5.65 C-0.04 3.77 -0.02 1.88 0 0 Z " fill="#23375F" transform="translate(36,210)"/>
<path d="M0 0 C2.97 1.3 4.69 2.54 6.62 5.12 C7.41 6.07 8.19 7.02 9 8 C11.12 8.23 11.12 8.23 12.62 6.5 C13.08 6 13.53 5.51 14 5 C19.76 9.29 19.76 9.29 20.94 12.75 C20.96 13.49 20.98 14.24 21 15 C20 16 20 16 17.32 16.11 C16.15 16.11 14.98 16.1 13.78 16.1 C12.52 16.09 11.26 16.09 9.96 16.09 C8.62 16.08 7.28 16.07 5.94 16.06 C4.59 16.06 3.25 16.05 1.9 16.05 C-1.4 16.04 -4.7 16.02 -8 16 C-8.62 14.19 -8.62 14.19 -9 12 C-7.6 9.74 -6.23 7.8 -4.56 5.75 C-4.13 5.2 -3.69 4.64 -3.25 4.07 C-2.18 2.7 -1.09 1.35 0 0 Z " fill="#7782D7" transform="translate(281,296)"/>
<path d="M0 0 C0.75 0.01 1.5 0.01 2.27 0.02 C3.08 0.02 3.89 0.02 4.72 0.03 C5.57 0.03 6.42 0.04 7.3 0.05 C8.15 0.06 9 0.06 9.88 0.06 C12 0.08 14.12 0.09 16.23 0.11 C16.23 2.09 16.23 4.07 16.23 6.11 C13.74 7.36 12.82 6.89 10.23 6.11 C10.3 6.81 10.36 7.52 10.42 8.24 C10.19 11.77 8.94 14.05 7.23 17.11 C5.91 16.78 4.59 16.45 3.23 16.11 C3.23 15.45 3.23 14.79 3.23 14.11 C2.45 14.46 1.67 14.81 0.86 15.18 C-0.01 15.49 -0.87 15.79 -1.77 16.11 C-2.43 15.78 -3.09 15.45 -3.77 15.11 C-3.63 12.8 -3.48 10.49 -3.33 8.18 C-3.25 6.89 -3.17 5.6 -3.08 4.27 C-2.67 0.17 -2.67 0.17 0 0 Z " fill="#207EB8" transform="translate(117.765869140625,126.886474609375)"/>
<path d="M0 0 C8.58 0 17.16 0 26 0 C26 3.3 26 6.6 26 10 C23.69 10 21.38 10 19 10 C19.66 9.34 20.32 8.68 21 8 C22.32 8 23.64 8 25 8 C25 6.02 25 4.04 25 2 C17.08 2 9.16 2 1 2 C1 3.98 1 5.96 1 8 C3.64 8 6.28 8 9 8 C10.49 10.99 10.12 13.71 10 17 C9.67 17.66 9.34 18.32 9 19 C6.69 19 4.38 19 2 19 C2 23.95 2 28.9 2 34 C4.47 33.5 4.47 33.5 7 33 C7.33 31.35 7.66 29.7 8 28 C8.33 28 8.66 28 9 28 C9 29.98 9 31.96 9 34 C11.64 34 14.28 34 17 34 C17 34.33 17 34.66 17 35 C14.69 35 12.38 35 10 35 C10.02 36.3 10.04 37.6 10.06 38.94 C10.08 40.29 10.07 41.65 10 43 C9 44 9 44 6.59 44.11 C5.55 44.11 4.51 44.1 3.43 44.1 C2.31 44.09 1.18 44.09 0.03 44.09 C-1.16 44.08 -2.34 44.07 -3.56 44.06 C-4.75 44.06 -5.94 44.05 -7.16 44.05 C-10.11 44.04 -13.05 44.02 -16 44 C-16.33 45.32 -16.66 46.64 -17 48 C-17 46.35 -17 44.7 -17 43 C-8.75 43 -0.5 43 8 43 C8 40.36 8 37.72 8 35 C5.36 35 2.72 35 0 35 C-0.2 32.94 -0.38 30.88 -0.56 28.81 C-0.67 27.66 -0.77 26.52 -0.88 25.33 C-0.99 22.31 -0.74 19.91 0 17 C3.47 16.5 3.47 16.5 7 16 C7.33 14.02 7.66 12.04 8 10 C5.36 10 2.72 10 0 10 C0 6.7 0 3.4 0 0 Z " fill="#1F4661" transform="translate(163,132)"/>
<path d="M0 0 C1.11 0.05 2.23 0.1 3.37 0.16 C6.1 0.29 8.83 0.42 11.56 0.56 C11.56 2.54 11.56 4.52 11.56 6.56 C9.25 6.89 6.94 7.22 4.56 7.56 C4.23 10.53 3.9 13.5 3.56 16.56 C1.58 16.89 -0.4 17.22 -2.44 17.56 C-2.42 16.39 -2.4 15.21 -2.38 14 C-2.37 10.09 -2.79 6.42 -3.44 2.56 C-5.87 2.83 -5.87 2.83 -8.44 3.56 C-9.43 5.05 -9.43 5.05 -10.44 6.56 C-12.6 6.86 -12.6 6.86 -15.06 6.75 C-15.88 6.72 -16.7 6.7 -17.54 6.67 C-18.48 6.62 -18.48 6.62 -19.44 6.56 C-19.44 4.58 -19.44 2.6 -19.44 0.56 C-12.91 -0.7 -6.61 -0.34 0 0 Z " fill="#1B3E6C" transform="translate(192.4375,227.4375)"/>
<path d="M0 0 C0.66 0.33 1.32 0.66 2 1 C1.44 1.68 0.89 2.36 0.31 3.05 C-1.3 5.02 -2.91 6.99 -4.51 8.97 C-5.97 10.74 -7.44 12.5 -8.96 14.22 C-23.79 31.45 -33.23 54.2 -39 76 C-39.41 77.51 -39.41 77.51 -39.83 79.06 C-42 87.97 -42.69 96.87 -43.27 106 C-43.33 107.01 -43.4 108.01 -43.47 109.05 C-43.53 109.95 -43.58 110.86 -43.64 111.79 C-44 114 -44 114 -46 116 C-45.61 88.47 -40.93 64.28 -27.97 39.85 C-26.43 36.92 -24.97 33.96 -23.5 31 C-22.67 29.33 -21.83 27.67 -21 26 C-20.34 26 -19.68 26 -19 26 C-18.75 25.29 -18.5 24.59 -18.25 23.86 C-16.84 20.63 -15.07 18.04 -13 15.19 C-11.95 13.72 -11.95 13.72 -10.88 12.23 C-9.95 11.13 -9.95 11.13 -9 10 C-8.34 10 -7.68 10 -7 10 C-6.77 9.46 -6.55 8.93 -6.31 8.38 C-4.57 5.21 -2.36 2.73 0 0 Z " fill="#294E6F" transform="translate(82,93)"/>
<path d="M0 0 C0.99 0.33 1.98 0.66 3 1 C3.87 2.9 3.87 2.9 4.58 5.42 C4.85 6.37 5.12 7.31 5.4 8.29 C5.68 9.32 5.96 10.36 6.25 11.42 C6.56 12.49 6.86 13.57 7.17 14.67 C8.13 18.11 9.07 21.55 10 25 C10.3 26.1 10.6 27.2 10.9 28.33 C12.66 34.86 14.39 41.4 16.08 47.95 C16.96 51.32 17.84 54.68 18.72 58.05 C19.28 60.2 19.84 62.36 20.4 64.52 C20.66 65.51 20.93 66.51 21.2 67.54 C21.55 68.92 21.55 68.92 21.92 70.34 C22.13 71.14 22.34 71.95 22.55 72.78 C23 75 23 75 23 79 C15.55 76.6 8.29 73.84 1 71 C-3.45 79.91 -3.45 79.91 -8 89 C-8.66 89 -9.32 89 -10 89 C-8.52 84 -6.37 79.67 -3.88 75.12 C-3.5 74.44 -3.13 73.75 -2.75 73.04 C-1.84 71.36 -0.92 69.68 0 68 C5.22 69.65 10.28 71.49 15.33 73.61 C16.39 74.06 17.46 74.51 18.56 74.97 C19.36 75.31 20.17 75.65 21 76 C20.74 75.09 20.49 74.19 20.22 73.25 C19 68.9 17.78 64.54 16.56 60.19 C16.34 59.39 16.12 58.59 15.89 57.77 C13.3 48.5 10.77 39.22 8.4 29.89 C8.2 29.08 7.99 28.28 7.78 27.45 C6.8 23.57 5.83 19.68 4.87 15.8 C4.52 14.39 4.16 12.99 3.81 11.59 C3.51 10.36 3.21 9.13 2.89 7.87 C2.21 4.9 2.21 4.9 0 3 C-0.66 3.66 -1.32 4.32 -2 5 C-2.99 4.67 -3.98 4.34 -5 4 C-2.69 1.94 -2.69 1.94 0 0 Z " fill="#2C5B7C" transform="translate(387,221)"/>
<path d="M0 0 C8.91 0 17.82 0 27 0 C27 8.91 27 17.82 27 27 C18.09 27 9.18 27 0 27 C0 18.09 0 9.18 0 0 Z M2 2 C2 9.59 2 17.18 2 25 C9.59 25 17.18 25 25 25 C25 17.41 25 9.82 25 2 C17.41 2 9.82 2 2 2 Z " fill="#142845" transform="translate(111,277)"/>
<path d="M0 0 C1.62 2 1.62 2 3 4 C-0.75 5.14 -4.5 6.26 -8.25 7.38 C-9.29 7.69 -10.34 8.01 -11.41 8.34 C-21.9 11.44 -32.03 13.44 -43 13 C-40.1 9.69 -38.14 8.44 -33.82 7.66 C-32.81 7.46 -31.81 7.27 -30.77 7.07 C-29.18 6.79 -29.18 6.79 -27.56 6.5 C-19.58 4.97 -11.9 3.3 -4.2 0.7 C-2 0 -2 0 0 0 Z " fill="#546DBE" transform="translate(263,380)"/>
<path d="M0 0 C1.98 0 3.96 0 6 0 C7.33 15.74 7.33 15.74 6 23 C4.35 23 2.7 23 1 23 C1 20.36 1 17.72 1 15 C-1.97 15 -4.94 15 -8 15 C-8 13.02 -8 11.04 -8 9 C-6.58 8.66 -6.58 8.66 -5.12 8.31 C-1.83 7.31 -1.83 7.31 -0.62 4.5 C0.08 2.11 0.08 2.11 0 0 Z " fill="#1D3A66" transform="translate(224,219)"/>
<path d="M0 0 C8.58 0 17.16 0 26 0 C26 8.91 26 17.82 26 27 C17.42 27 8.84 27 0 27 C-1.23 24.55 -1.11 22.95 -1.1 20.21 C-1.09 19.27 -1.09 18.33 -1.09 17.36 C-1.08 16.37 -1.07 15.39 -1.06 14.38 C-1.06 13.38 -1.05 12.39 -1.05 11.37 C-1.04 8.91 -1.02 6.46 -1 4 C-0.34 4 0.32 4 1 4 C1 10.93 1 17.86 1 25 C8.59 25 16.18 25 24 25 C24 17.41 24 9.82 24 2 C11.62 2.5 11.62 2.5 -1 3 C-0.67 2.01 -0.34 1.02 0 0 Z " fill="#18314F" transform="translate(266,123)"/>
<path d="M0 0 C1.12 -0 2.24 -0 3.39 -0 C4.57 -0 5.75 0 6.97 0.01 C8.74 0 8.74 0 10.54 -0 C12.22 -0 12.22 -0 13.94 0 C14.97 0 16.01 0 17.08 0 C19.47 0.13 19.47 0.13 20.47 1.13 C20.56 3.06 20.58 4.99 20.57 6.92 C20.56 8.09 20.56 9.26 20.56 10.46 C20.55 11.69 20.54 12.93 20.53 14.2 C20.53 15.43 20.52 16.67 20.52 17.94 C20.51 21 20.49 24.07 20.47 27.13 C16.16 27.16 11.84 27.18 7.53 27.2 C6.3 27.2 5.07 27.21 3.8 27.22 C2.63 27.22 1.46 27.23 0.25 27.23 C-1.37 27.24 -1.37 27.24 -3.03 27.25 C-5.53 27.13 -5.53 27.13 -6.53 26.13 C-6.63 24.29 -6.66 22.45 -6.66 20.6 C-6.67 19.48 -6.67 18.36 -6.67 17.21 C-6.66 16.03 -6.66 14.85 -6.66 13.63 C-6.66 12.45 -6.66 11.27 -6.67 10.06 C-6.67 8.94 -6.67 7.82 -6.66 6.66 C-6.66 5.63 -6.66 4.59 -6.66 3.53 C-6.42 -0.99 -3.95 0 0 0 Z M-4.53 2.13 C-4.53 9.72 -4.53 17.31 -4.53 25.13 C3.06 25.13 10.65 25.13 18.47 25.13 C18.47 17.21 18.47 9.29 18.47 1.13 C13.61 1.1 13.61 1.1 8.66 1.07 C7.13 1.06 7.13 1.06 5.57 1.04 C4.77 1.04 3.97 1.04 3.14 1.04 C2.31 1.03 1.49 1.02 0.65 1.02 C-1.71 1.05 -1.71 1.05 -4.53 2.13 Z " fill="#275C7D" transform="translate(117.53125,122.8671875)"/>
<path d="M0 0 C0.75 0.01 1.5 0.01 2.27 0.02 C3.08 0.02 3.89 0.02 4.72 0.03 C5.57 0.03 6.42 0.04 7.3 0.05 C8.15 0.06 9 0.06 9.88 0.06 C12 0.08 14.12 0.09 16.23 0.11 C15.9 1.43 15.57 2.75 15.23 4.11 C14.24 4.11 13.25 4.11 12.23 4.11 C11.9 5.1 11.57 6.09 11.23 7.11 C10.57 7.11 9.91 7.11 9.23 7.11 C9.23 7.77 9.23 8.43 9.23 9.11 C8.26 9.57 7.3 10.02 6.3 10.49 C3.16 11.77 3.16 11.77 2.23 14.11 C-0.33 14.74 -0.33 14.74 -2.77 15.11 C-2.79 12.8 -2.81 10.49 -2.83 8.18 C-2.84 6.89 -2.85 5.6 -2.86 4.27 C-2.74 0.18 -2.74 0.18 0 0 Z " fill="#5A9DCA" transform="translate(192.765869140625,192.886474609375)"/>
<path d="M0 0 C2.97 0 5.94 0 9 0 C10.42 12.07 10.42 12.07 9 18 C6.29 19.35 3.99 19.07 1 19 C-1.5 12.52 -0.83 6.82 0 0 Z " fill="#225D89" transform="translate(180,106)"/>
<path d="M0 0 C1.5 3.88 0.44 6.14 -1.13 9.88 C-1.85 11.6 -1.85 11.6 -2.58 13.36 C-3.34 15.16 -3.34 15.16 -4.12 17 C-4.61 18.17 -5.1 19.34 -5.6 20.54 C-7.06 24.03 -8.53 27.52 -10 31 C-10.96 33.29 -11.91 35.58 -12.87 37.88 C-13.28 38.86 -13.69 39.85 -14.11 40.87 C-14.41 41.57 -14.7 42.27 -15 43 C-18.54 43 -18.86 42.53 -21.33 40.18 C-21.96 39.58 -22.6 38.98 -23.25 38.37 C-23.91 37.73 -24.57 37.09 -25.25 36.44 C-25.89 35.83 -26.54 35.22 -27.2 34.59 C-30.42 31.53 -33.59 28.42 -36.72 25.26 C-39.12 22.85 -41.57 20.56 -44.19 18.38 C-47.17 15.81 -49.68 13.19 -52 10 C-48.08 11.31 -45.67 12.83 -43 16 C-43 16.66 -43 17.32 -43 18 C-42.45 18.22 -41.91 18.44 -41.34 18.66 C-38.23 20.44 -35.96 22.87 -33.5 25.44 C-29.78 29.31 -29.78 29.31 -25.66 32.72 C-25.11 33.14 -24.56 33.57 -24 34 C-24 34.66 -24 35.32 -24 36 C-23.42 36.27 -22.85 36.54 -22.25 36.81 C-19.97 38.02 -18.05 39.43 -16 41 C-15.85 40.44 -15.7 39.88 -15.54 39.3 C-13.37 31.68 -10.46 24.44 -7.44 17.12 C-6.7 15.31 -6.7 15.31 -5.94 13.46 C-1.99 3.83 -1.99 3.83 0 0 Z " fill="#212853" transform="translate(404,169)"/>
<path d="M0 0 C1.74 0.01 3.47 0.01 5.21 0.01 C9.43 0.02 13.65 0.04 17.88 0.06 C17.88 0.72 17.88 1.38 17.88 2.06 C16.87 2.09 15.86 2.11 14.82 2.14 C11.01 2.23 7.19 2.33 3.37 2.43 C1.74 2.48 0.1 2.52 -1.54 2.56 C-21.97 2.56 -21.97 2.56 -42 5.81 C-42.95 6.07 -42.95 6.07 -43.92 6.33 C-45.99 6.89 -48.06 7.48 -50.12 8.06 C-51.79 8.52 -53.46 8.98 -55.13 9.44 C-59.47 10.63 -63.8 11.84 -68.12 13.06 C-68.12 12.4 -68.12 11.74 -68.12 11.06 C-59.16 7.69 -50.19 5.27 -40.81 3.31 C-39.81 3.1 -38.81 2.89 -37.78 2.68 C-25.12 0.12 -12.87 -0.06 0 0 Z " fill="#3C8CAB" transform="translate(202.125,5.9375)"/>
<path d="M0 0 C1.98 0 3.96 0 6 0 C6.66 2.31 7.32 4.62 8 7 C10.97 7.5 10.97 7.5 14 8 C14 10.31 14 12.62 14 15 C9.38 15 4.76 15 0 15 C0 10.05 0 5.1 0 0 Z " fill="#1F5583" transform="translate(139,185)"/>
<path d="M0 0 C0.89 0.39 1.77 0.78 2.69 1.19 C-2.02 5.53 -7.54 7.84 -13.31 10.44 C-14.3 10.9 -15.28 11.36 -16.3 11.83 C-17.25 12.26 -18.2 12.69 -19.19 13.14 C-20.05 13.53 -20.91 13.93 -21.8 14.33 C-24.46 15.24 -26.52 15.35 -29.31 15.19 C-29.31 13.87 -29.31 12.55 -29.31 11.19 C-28.7 10.93 -28.09 10.67 -27.46 10.41 C-24.68 9.23 -21.9 8.05 -19.12 6.88 C-17.69 6.27 -17.69 6.27 -16.22 5.65 C-14.82 5.06 -14.82 5.06 -13.39 4.45 C-12.54 4.09 -11.69 3.73 -10.81 3.35 C-8.23 2.22 -8.23 2.22 -5.7 0.5 C-3.31 -0.81 -3.31 -0.81 0 0 Z " fill="#7393DB" transform="translate(293.3125,367.8125)"/>
<path d="M0 0 C0.99 0.5 0.99 0.5 2 1 C-2.26 3.16 -6.54 5.27 -10.88 7.26 C-21.5 12.15 -31.42 17.29 -41 24 C-41.96 24.67 -42.92 25.34 -43.91 26.02 C-55.67 34.39 -66.86 43.72 -77 54 C-77.66 53.67 -78.32 53.34 -79 53 C-71.71 45.48 -64.33 38.4 -56 32 C-55.44 31.57 -54.88 31.14 -54.3 30.69 C-37.96 18.19 -19.63 6.54 0 0 Z " fill="#3B82A0" transform="translate(131,18)"/>
<path d="M0 0 C5.36 1.46 8.32 5.09 12 9 C12.8 9.8 13.61 10.61 14.44 11.44 C15.28 12.28 16.13 13.13 17 14 C17.61 14.57 18.21 15.14 18.84 15.73 C23.96 20.65 28.36 25.88 32 32 C32 32.66 32 33.32 32 34 C32.66 34 33.32 34 34 34 C35.4 35.98 35.4 35.98 36.94 38.62 C37.44 39.48 37.95 40.34 38.46 41.23 C40.06 44.11 41.53 47.04 43 50 C43.54 51.01 44.08 52.03 44.64 53.07 C45.17 54.08 45.7 55.09 46.25 56.12 C46.79 57.14 47.33 58.15 47.89 59.2 C49.04 62.11 49.17 63.16 48 66 C47.52 65.01 47.03 64.01 46.53 62.99 C35.61 40.77 23 22.11 5 5 C3.32 3.34 1.66 1.67 0 0 Z " fill="#263E64" transform="translate(305,80)"/>
<path d="M0 0 C0.91 0 1.81 0 2.75 0 C5.65 0.01 8.56 0.02 11.46 0.04 C13.43 0.04 15.39 0.04 17.36 0.05 C22.18 0.06 27.01 0.08 31.84 0.1 C31.84 0.43 31.84 0.76 31.84 1.1 C18.64 1.1 5.44 1.1 -8.16 1.1 C-8.49 14.63 -8.82 28.16 -9.16 42.1 C-9.82 42.1 -10.48 42.1 -11.16 42.1 C-11.16 28.57 -11.16 15.04 -11.16 1.1 C-7.73 -0.62 -3.78 -0.02 0 0 Z " fill="#2A678A" transform="translate(113.1640625,114.90234375)"/>
<path d="M0 0 C3.3 0 6.6 0 10 0 C10 3.3 10 6.6 10 10 C7.36 10 4.72 10 2 10 C1.67 11.32 1.34 12.64 1 14 C-1.63 12.48 -3.84 11.16 -6 9 C-5 8 -5 8 -2.44 7.94 C-1.23 7.97 -1.23 7.97 0 8 C0 5.36 0 2.72 0 0 Z " fill="#0F182F" transform="translate(282,243)"/>
<path d="M0 0 C2 1 2 1 3.19 3.19 C4 6 4 6 3 12 C-4.92 12 -12.84 12 -21 12 C-19.35 13.65 -17.7 15.3 -16 17 C-11.33 21.67 -6.67 26.33 -2 31 C-2.33 31.66 -2.66 32.32 -3 33 C-3.41 32.58 -3.82 32.15 -4.25 31.71 C-7.42 28.49 -10.64 25.39 -14.06 22.44 C-17.54 19.42 -20.86 16.37 -24 13 C-24 12.34 -24 11.68 -24 11 C-15.68 9.86 -7.37 8.75 1 8 C0.67 5.36 0.34 2.72 0 0 Z " fill="#23335C" transform="translate(354,146)"/>
<path d="M0 0 C1.32 0.33 2.64 0.66 4 1 C4.06 4.96 4.09 8.92 4.12 12.88 C4.14 14 4.16 15.13 4.18 16.29 C4.18 17.37 4.19 18.45 4.2 19.55 C4.21 20.55 4.22 21.54 4.23 22.57 C4 25 4 25 2 27 C-1.63 27.45 -5.29 27.32 -8.94 27.31 C-9.95 27.33 -10.97 27.34 -12.01 27.36 C-13.47 27.36 -13.47 27.36 -14.96 27.36 C-16.3 27.37 -16.3 27.37 -17.67 27.37 C-20.45 26.93 -21.33 26.22 -23 24 C-23.39 21.27 -23.14 18.77 -23 16 C-22.67 16 -22.34 16 -22 16 C-21.67 18.97 -21.34 21.94 -21 25 C-15.06 25 -9.12 25 -3 25 C-3 24.34 -3 23.68 -3 23 C-1.68 23 -0.36 23 1 23 C1.23 19.54 1.43 16.08 1.62 12.62 C1.69 11.64 1.75 10.66 1.82 9.64 C1.87 8.7 1.92 7.76 1.98 6.79 C2.03 5.92 2.08 5.05 2.14 4.15 C2.22 1.78 2.22 1.78 0 0 Z " fill="#334C76" transform="translate(211,192)"/>
<path d="M0 0 C0.03 1.48 0.05 2.96 0.06 4.44 C0.07 5.26 0.09 6.08 0.1 6.93 C0 9 0 9 -1 10 C-3.33 10.04 -5.67 10.04 -8 10 C-8.33 11.65 -8.66 13.3 -9 15 C-8.34 15 -7.68 15 -7 15 C-7.33 15.66 -7.66 16.32 -8 17 C-9.98 16.01 -11.96 15.02 -14 14 C-13.67 12.35 -13.34 10.7 -13 9 C-12.01 9 -11.02 9 -10 9 C-9.88 7.7 -9.75 6.4 -9.62 5.06 C-9.41 2.85 -9.41 2.85 -9 1 C-6.04 -0.48 -3.26 -0.06 0 0 Z " fill="#2C4871" transform="translate(189,260)"/>
<path d="M0 0 C5.25 0.51 9.13 3.21 13.5 5.94 C14.3 6.43 15.09 6.92 15.91 7.43 C25.9 13.7 34.97 20.83 43.64 28.83 C46.75 31.69 49.97 34.43 53.19 37.18 C55.02 39.02 55.99 40.62 57 43 C53.13 41.48 51.56 39.2 49 36 C44.22 31.35 38.9 27.27 33.69 23.12 C33.08 22.64 32.47 22.15 31.84 21.64 C29.24 19.6 27.16 18.05 24 17 C23.32 16.27 22.63 15.55 21.93 14.8 C18.3 11.02 13.73 8.76 9.19 6.25 C7.45 5.28 5.71 4.31 3.98 3.33 C3.22 2.9 2.45 2.48 1.66 2.04 C1.12 1.7 0.57 1.35 0 1 C0 0.67 0 0.34 0 0 Z " fill="#2D6287" transform="translate(294,29)"/>
<path d="M0 0 C0 0.66 0 1.32 0 2 C0.62 2.14 1.24 2.29 1.88 2.44 C4 3 4 3 6 4 C7.33 8.45 8.29 12.33 8 17 C2.38 18.52 -1.41 17.3 -6.69 15.38 C-7.45 15.13 -8.2 14.88 -8.99 14.62 C-12.73 13.29 -14.59 12.55 -17.02 9.29 C-17.34 8.53 -17.67 7.78 -18 7 C-16.68 6.34 -15.36 5.68 -14 5 C-14 4.34 -14 3.68 -14 3 C-8.99 -1.38 -6.17 -1.28 0 0 Z M-12.69 4.31 C-13.83 5.51 -14.94 6.73 -16 8 C-13.4 11.14 -10.45 12.24 -6.69 13.69 C-5.58 14.12 -4.47 14.56 -3.32 15.01 C-0.02 15.99 2.58 16.19 6 16 C5.89 14.37 5.76 12.75 5.62 11.12 C5.56 10.22 5.49 9.32 5.41 8.38 C5.2 5.82 5.2 5.82 3 4 C-3 1.16 -7.42 -0.38 -12.69 4.31 Z " fill="#327398" transform="translate(384,240)"/>
<path d="M0 0 C3.3 0 6.6 0 10 0 C10 3.3 10 6.6 10 10 C6.7 10 3.4 10 0 10 C0 6.7 0 3.4 0 0 Z " fill="#121A31" transform="translate(248,260)"/>
<path d="M0 0 C3.3 0 6.6 0 10 0 C10 3.3 10 6.6 10 10 C6.7 10 3.4 10 0 10 C0 6.7 0 3.4 0 0 Z " fill="#1E3A53" transform="translate(231,106)"/>
<path d="M0 0 C3.3 0 6.6 0 10 0 C10 3.3 10 6.6 10 10 C3.07 10.1 3.07 10.1 1 10 C0 9 0 9 -0.1 6.93 C-0.07 4.62 -0.03 2.31 0 0 Z " fill="#172E47" transform="translate(111,243)"/>
<path d="M0 0 C3.56 0.19 3.56 0.19 5.56 2.19 C5.9 7.52 5.9 7.52 4.56 10.19 C1.59 10.19 -1.38 10.19 -4.44 10.19 C-4.54 3.25 -4.54 3.25 -4.44 1.19 C-3.44 0.19 -3.44 0.19 0 0 Z " fill="#18273E" transform="translate(278.4375,173.8125)"/>
<path d="M0 0 C0 3.52 -0.82 4.37 -3 7 C-1.09 7.42 -1.09 7.42 0.87 7.84 C2.54 8.21 4.21 8.57 5.88 8.94 C6.72 9.12 7.56 9.3 8.43 9.49 C9.23 9.67 10.04 9.84 10.87 10.03 C11.98 10.27 11.98 10.27 13.12 10.52 C15 11 15 11 17 12 C16.28 21.1 10.27 30.73 5 38 C4.34 38 3.68 38 3 38 C4.75 33.16 7.38 29.25 10.25 25.01 C12.33 21.43 13.63 17.91 15 14 C14.4 13.85 13.81 13.71 13.2 13.56 C10.5 12.89 7.81 12.23 5.12 11.56 C4.19 11.33 3.25 11.1 2.29 10.87 C1.39 10.64 0.49 10.42 -0.43 10.19 C-1.26 9.99 -2.08 9.78 -2.94 9.57 C-5 9 -5 9 -7 8 C-7 7.34 -7 6.68 -7 6 C-5.47 4.49 -5.47 4.49 -3.5 2.88 C-2.85 2.34 -2.2 1.8 -1.53 1.24 C-1.03 0.83 -0.52 0.42 0 0 Z " fill="#2F5C7B" transform="translate(335,264)"/>
<path d="M0 0 C8.58 0 17.16 0 26 0 C26 2.64 26 5.28 26 8 C25.34 7.01 24.68 6.02 24 5 C23.34 6.32 22.68 7.64 22 9 C19.52 8.5 19.52 8.5 17 8 C16.67 6.68 16.34 5.36 16 4 C19.17 2.24 21.24 1.75 25 1 C17.08 1 9.16 1 1 1 C1 4.96 1 8.92 1 13 C0.67 13 0.34 13 0 13 C0 8.71 0 4.42 0 0 Z " fill="#2F4B80" transform="translate(274,288)"/>
<path d="M0 0 C1.98 0 3.96 0 6 0 C6 4.62 6 9.24 6 14 C4.02 14 2.04 14 0 14 C0 9.38 0 4.76 0 0 Z " fill="#1F2C59" transform="translate(216,305)"/>
<path d="M0 0 C2.97 0 5.94 0 9 0 C9 2.97 9 5.94 9 9 C6.03 9 3.06 9 0 9 C0 6.03 0 3.06 0 0 Z " fill="#1E4963" transform="translate(163,115)"/>
<path d="M0 0 C4.62 0 9.24 0 14 0 C14 1.98 14 3.96 14 6 C12.23 6.05 10.46 6.09 8.69 6.12 C7.21 6.16 7.21 6.16 5.7 6.2 C3 6 3 6 0 4 C0 2.68 0 1.36 0 0 Z " fill="#203D68" transform="translate(267,193)"/>
<path d="M0 0 C0.66 0 1.32 0 2 0 C2 7.92 2 15.84 2 24 C3.65 24.33 5.3 24.66 7 25 C7.99 25.33 8.98 25.66 10 26 C10.62 28.31 10.62 28.31 11 31 C10.01 32.49 10.01 32.49 9 34 C8 33 8 33 7.94 29.94 C7.96 28.97 7.98 28 8 27 C5.36 26.67 2.72 26.34 0 26 C0 17.42 0 8.84 0 0 Z " fill="#0F1E38" transform="translate(291,175)"/>
<path d="M0 0 C1.65 0 3.3 0 5 0 C5 4.29 5 8.58 5 13 C3.02 13.99 3.02 13.99 1 15 C0 14 0 14 -0.1 10.84 C-0.08 8.91 -0.08 8.91 -0.06 6.94 C-0.05 5.65 -0.04 4.36 -0.04 3.03 C-0.02 2.03 -0.01 1.03 0 0 Z " fill="#1A335F" transform="translate(165,279)"/>
<path d="M0 0 C0.66 0.33 1.32 0.66 2 1 C1.54 1.64 1.08 2.28 0.61 2.94 C-0 3.81 -0.62 4.67 -1.25 5.56 C-1.85 6.41 -2.46 7.26 -3.08 8.13 C-5.22 11.33 -7.13 14.64 -9 18 C-9.79 19.39 -10.57 20.79 -11.36 22.18 C-12.16 23.6 -12.95 25.02 -13.75 26.44 C-14.16 27.17 -14.57 27.9 -15 28.65 C-16 30.44 -17 32.22 -18 34 C-18.66 34 -19.32 34 -20 34 C-18.5 28.77 -16.15 24.45 -13.38 19.81 C-12.93 19.07 -12.49 18.33 -12.04 17.56 C-8.37 11.44 -4.37 5.65 0 0 Z " fill="#33739D" transform="translate(39,87)"/>
<path d="M0 0 C2.97 0 5.94 0 9 0 C10.42 12.07 10.42 12.07 9 18 C6.29 19.35 3.99 19.07 1 19 C0.34 16.69 -0.32 14.38 -1 12 C-0.34 11.67 0.32 11.34 1 11 C1.33 12.65 1.66 14.3 2 16 C3.65 16 5.3 16 7 16 C7 11.38 7 6.76 7 2 C5.02 2 3.04 2 1 2 C0.67 2.66 0.34 3.32 0 4 C0 2.68 0 1.36 0 0 Z " fill="#1E4254" transform="translate(180,106)"/>
<path d="M0 0 C0.33 0.66 0.66 1.32 1 2 C-12.5 20.36 -12.5 20.36 -21 27 C-21.66 26.67 -22.32 26.34 -23 26 C-22.38 25.41 -21.77 24.81 -21.13 24.2 C-14.93 18.13 -9.38 11.81 -4 5 C-2.67 3.33 -1.33 1.67 0 0 Z " fill="#2C4D71" transform="translate(335,305)"/>
<path d="M0 0 C0 0.99 0 1.98 0 3 C-1.43 4.27 -2.87 5.55 -4.39 6.72 C-6.02 7.96 -6.02 7.96 -7.35 9.43 C-9.55 11.52 -11.98 12.97 -14.56 14.56 C-18.51 16.99 -18.51 16.99 -22 20 C-24.12 19.62 -24.12 19.62 -26 19 C-25.28 18.54 -24.57 18.08 -23.83 17.6 C-11.31 9.59 -11.31 9.59 0 0 Z " fill="#274068" transform="translate(309,333)"/>
<path d="M0 0 C0.66 0.33 1.32 0.66 2 1 C1.29 1.63 0.58 2.25 -0.15 2.9 C-1.07 3.72 -1.99 4.53 -2.94 5.38 C-3.85 6.19 -4.77 7 -5.71 7.84 C-8.04 9.79 -8.04 9.79 -9 12 C-9.99 12 -10.98 12 -12 12 C-12 12.66 -12 13.32 -12 14 C-13.61 15.4 -13.61 15.4 -15.75 16.94 C-16.45 17.44 -17.14 17.95 -17.86 18.46 C-18.57 18.97 -19.27 19.48 -20 20 C-21.34 21 -22.67 22 -24 23 C-24.66 22.67 -25.32 22.34 -26 22 C-20.54 16.97 -15.02 12.14 -9.12 7.64 C-5.98 5.21 -2.99 2.61 0 0 Z " fill="#2F6889" transform="translate(364,240)"/>
<path d="M0 0 C2.97 0 5.94 0 9 0 C8.34 1.98 7.68 3.96 7 6 C4.69 6.33 2.38 6.66 0 7 C0 4.69 0 2.38 0 0 Z " fill="#22456B" transform="translate(130,236)"/>
<path d="M0 0 C2.5 0.12 2.5 0.12 3.5 1.12 C3.21 3.46 2.88 5.8 2.5 8.12 C-0.47 7.63 -0.47 7.63 -3.5 7.12 C-3.54 5.13 -3.54 3.12 -3.5 1.12 C-2.5 0.12 -2.5 0.12 0 0 Z " fill="#27517C" transform="translate(219.5,157.875)"/>
<path d="M0 0 C2.31 0 4.62 0 7 0 C7 2.31 7 4.62 7 7 C4.69 7 2.38 7 0 7 C0 4.69 0 2.38 0 0 Z " fill="#7391BB" transform="translate(181,262)"/>
<path d="M0 0 C2.97 0.5 2.97 0.5 6 1 C6 3.31 6 5.62 6 8 C4.02 8 2.04 8 0 8 C0 5.36 0 2.72 0 0 Z " fill="#224A72" transform="translate(173,209)"/>
<path d="M0 0 C2.97 0 5.94 0 9 0 C9 5.28 9 10.56 9 16 C8.67 16 8.34 16 8 16 C7.34 11.05 6.68 6.1 6 1 C4.35 1 2.7 1 1 1 C1 3.31 1 5.62 1 8 C0.67 8 0.34 8 0 8 C0 5.36 0 2.72 0 0 Z " fill="#172F49" transform="translate(240,175)"/>
<path d="M0 0 C2.64 0 5.28 0 8 0 C7.34 1.98 6.68 3.96 6 6 C4.02 6 2.04 6 0 6 C0 4.02 0 2.04 0 0 Z " fill="#204B73" transform="translate(130,202)"/>
<path d="M0 0 C1.65 0 3.3 0 5 0 C6 3 6 3 6 6 C4.02 6.33 2.04 6.66 0 7 C0 4.69 0 2.38 0 0 Z " fill="#223B67" transform="translate(276,176)"/>
<path d="M0 0 C1.68 0.29 3.34 0.62 5 1 C5 2.98 5 4.96 5 7 C3.02 7 1.04 7 -1 7 C-1.04 5 -1.04 3 -1 1 C-0.67 0.67 -0.34 0.34 0 0 Z " fill="#1F4974" transform="translate(166,218)"/>
<path d="M0 0 C1.98 0 3.96 0 6 0 C6 1.98 6 3.96 6 6 C4.02 6 2.04 6 0 6 C0 4.02 0 2.04 0 0 Z " fill="#212C54" transform="translate(250,262)"/>
<path d="M0 0 C1.98 0 3.96 0 6 0 C6 1.98 6 3.96 6 6 C4.12 6.62 4.12 6.62 2 7 C0 5 0 5 -0.12 2.38 C-0.08 1.59 -0.04 0.81 0 0 Z " fill="#1A244A" transform="translate(284,245)"/>
<path d="M0 0 C1.98 0 3.96 0 6 0 C6 1.98 6 3.96 6 6 C4.02 6 2.04 6 0 6 C0 4.02 0 2.04 0 0 Z " fill="#234975" transform="translate(113,245)"/>
<path d="M0 0 C1.98 0 3.96 0 6 0 C6 1.98 6 3.96 6 6 C4.02 6 2.04 6 0 6 C0 4.02 0 2.04 0 0 Z " fill="#285078" transform="translate(233,159)"/>
<path d="M0 0 C1.98 0 3.96 0 6 0 C6 1.98 6 3.96 6 6 C4.02 6 2.04 6 0 6 C0 4.02 0 2.04 0 0 Z " fill="#26537E" transform="translate(233,108)"/>
<path d="M0 0 C0 3 0 3 -2.01 5.19 C-2.89 5.97 -3.78 6.76 -4.69 7.56 C-5.99 8.74 -5.99 8.74 -7.32 9.94 C-9.86 11.89 -11.99 13 -15 14 C-10.55 8.42 -5.76 4.21 0 0 Z " fill="#307296" transform="translate(381,226)"/>
<path d="M0 0 C1.98 0 3.96 0 6 0 C6.04 1.67 6.04 3.33 6 5 C5 6 5 6 2.44 6.06 C1.23 6.03 1.23 6.03 0 6 C0 4.02 0 2.04 0 0 Z " fill="#266A95" transform="translate(164,117)"/>
<path d="M0 0 C0.66 0.33 1.32 0.66 2 1 C-1.3 4.63 -4.6 8.26 -8 12 C-8 8.24 -7.05 7.59 -4.56 4.88 C-3.92 4.17 -3.29 3.47 -2.63 2.74 C-1.76 1.82 -0.9 0.9 0 0 Z " fill="#367C9C" transform="translate(51,73)"/>
<path d="M0 0 C2.48 0.5 2.48 0.5 5 1 C4.67 2.32 4.34 3.64 4 5 C2.68 5 1.36 5 0 5 C0 3.35 0 1.7 0 0 Z " fill="#92A6D9" transform="translate(292,292)"/>
<path d="M0 0 C2.38 -0.12 2.38 -0.12 5 0 C7 2 7 2 7.12 5.12 C7.08 6.07 7.04 7.02 7 8 C6.79 7.38 6.59 6.76 6.38 6.12 C4.45 3.15 2.33 2.87 -1 2 C-0.67 1.34 -0.34 0.68 0 0 Z " fill="#081622" transform="translate(277,174)"/>
<path d="M0 0 C1.49 0.99 1.49 0.99 3 2 C2.01 2 1.02 2 0 2 C0 1.34 0 0.68 0 0 Z " fill="#000010" transform="translate(233,300)"/>
<path d="" fill="#000000" transform="translate(0,0)"/>
<path d="" fill="#FFFFFF" transform="translate(0,0)"/>
<path d="" fill="#FFFFFF" transform="translate(0,0)"/>
<path d="" fill="#FFFFFF" transform="translate(0,0)"/>
<path d="" fill="#FFFFFF" transform="translate(0,0)"/>
<path d="" fill="#FFFFFF" transform="translate(0,0)"/>
<path d="" fill="#FFFFFF" transform="translate(0,0)"/>
<path d="" fill="#FFFFFF" transform="translate(0,0)"/>
<path d="" fill="#FFFFFF" transform="translate(0,0)"/>
<path d="" fill="#FFFFFF" transform="translate(0,0)"/>
<path d="" fill="#FFFFFF" transform="translate(0,0)"/>
<path d="" fill="#FFFFFF" transform="translate(0,0)"/>
<path d="" fill="#FFFFFF" transform="translate(0,0)"/>
<path d="" fill="#FFFFFF" transform="translate(0,0)"/>
<path d="" fill="#FFFFFF" transform="translate(0,0)"/>
<path d="" fill="#FFFFFF" transform="translate(0,0)"/>
<path d="" fill="#FFFFFF" transform="translate(0,0)"/>
<path d="" fill="#FFFFFF" transform="translate(0,0)"/>
<path d="" fill="#FFFFFF" transform="translate(0,0)"/>
<path d="" fill="#FFFFFF" transform="translate(0,0)"/>
<path d="" fill="#FFFFFF" transform="translate(0,0)"/>
<path d="" fill="#FFFFFF" transform="translate(0,0)"/>
<path d="" fill="#FFFFFF" transform="translate(0,0)"/>
<path d="" fill="#FFFFFF" transform="translate(0,0)"/>
<path d="" fill="#FFFFFF" transform="translate(0,0)"/>
<path d="" fill="#FFFFFF" transform="translate(0,0)"/>
<path d="" fill="#FFFFFF" transform="translate(0,0)"/>
<path d="" fill="#FFFFFF" transform="translate(0,0)"/>
<path d="" fill="#FFFFFF" transform="translate(0,0)"/>
<path d="" fill="#FFFFFF" transform="translate(0,0)"/>
<path d="" fill="#FFFFFF" transform="translate(0,0)"/>
<path d="" fill="#FFFFFF" transform="translate(0,0)"/>
<path d="" fill="#404040" transform="translate(0,0)"/>
<path d="" fill="#FFFFFF" transform="translate(0,0)"/>
<path d="" fill="#FFFFFF" transform="translate(0,0)"/>
<path d="" fill="#FFFFFF" transform="translate(0,0)"/>
<path d="" fill="#FFFFFF" transform="translate(0,0)"/>
<path d="" fill="#FFFFFF" transform="translate(0,0)"/>
<path d="" fill="#FFFFFF" transform="translate(0,0)"/>
<path d="" fill="#FFFFFF" transform="translate(0,0)"/>
<path d="" fill="#FFFFFF" transform="translate(0,0)"/>
<path d="" fill="#FFFFFF" transform="translate(0,0)"/>
<path d="" fill="#FFFFFF" transform="translate(0,0)"/>
<path d="" fill="#FFFFFF" transform="translate(0,0)"/>
<path d="" fill="#FFFFFF" transform="translate(0,0)"/>
<path d="" fill="#FFFFFF" transform="translate(0,0)"/>
<path d="" fill="#FFFFFF" transform="translate(0,0)"/>
<path d="" fill="#FFFFFF" transform="translate(0,0)"/>
<path d="" fill="#FFFFFF" transform="translate(0,0)"/>
<path d="" fill="#FFFFFF" transform="translate(0,0)"/>
<path d="" fill="#FFFFFF" transform="translate(0,0)"/>
<path d="" fill="#FFFFFF" transform="translate(0,0)"/>
<path d="" fill="#FFFFFF" transform="translate(0,0)"/>
</svg>
